<svg width="400" height="332" viewBox="0 0 400 332" fill="none" xmlns="http://www.w3.org/2000/svg">
<g clip-path="url(#clip0_313_0)">
<path d="M5.05742 185.396C2.61204 197.816 0.987217 210.384 0.193518 223.018C-1.61045 259.393 9.22201 298.802 48.4175 319.343C77.3448 334.506 115.129 335.895 150.242 324.316C205.308 306.153 252.899 275.732 310.466 262.014C358.528 250.561 393.025 223.203 399.252 175.811C405.479 128.419 372.478 93.286 322.539 86.5195C281.008 80.8924 240.053 69.3886 212.152 46.2209C187.223 25.5202 126.695 26.6229 64.0307 56.3582C27.533 73.6773 17.4528 103.155 14.274 132.001C12.3155 149.787 8.32273 167.595 5.05742 185.396Z" fill="#E6DCFF"/>
<path d="M155.305 73.5259C155.305 73.5259 174.205 83.4946 181.493 96.2288C193.527 75.7238 246.624 70.0027 240.211 68.6016C208.608 43.8382 155.305 73.5259 155.305 73.5259Z" fill="#3F0088"/>
<path d="M68.6237 82.8919C70.5981 82.9299 72.5585 83.2317 74.4529 83.7892L78.251 79.8541L85.9868 84.546L84.2574 89.7352C85.6279 91.1581 86.8021 92.7578 87.7486 94.492L93.2146 94.3958L95.3676 103.186L90.4778 105.628C90.4396 107.603 90.1375 109.565 89.5796 111.46L93.514 115.259L88.823 122.997L83.6348 121.267C82.2121 122.638 80.6127 123.812 78.879 124.758L78.9741 130.225L70.1867 132.379L67.745 127.487C65.7703 127.448 63.8095 127.146 61.9148 126.588L58.1155 130.524L50.3798 125.832L52.1092 120.642C50.7391 119.219 49.5654 117.62 48.619 115.886L43.1531 115.982L41 107.193L45.8898 104.75C45.9276 102.775 46.2293 100.814 46.787 98.9191L42.8569 95.1158L47.5479 87.3784L52.7361 89.1082C54.1589 87.738 55.7583 86.564 57.4919 85.6174L57.3935 80.1535L66.181 78L68.6227 82.8919H68.6237ZM66.275 95.6563C64.4104 96.1133 62.7232 97.1131 61.4267 98.5292C60.1302 99.9453 59.2827 101.714 58.9913 103.612C58.6999 105.51 58.9778 107.452 59.7897 109.192C60.6016 110.931 61.9112 112.391 63.5528 113.387C65.1943 114.383 67.0942 114.869 69.0121 114.784C70.93 114.7 72.7797 114.048 74.3274 112.912C75.8752 111.776 77.0513 110.207 77.7072 108.402C78.3631 106.598 78.4692 104.639 78.0122 102.774C77.7088 101.536 77.1646 100.37 76.4106 99.3418C75.6566 98.3139 74.7075 97.4447 73.6176 96.7837C72.5277 96.1227 71.3183 95.683 70.0584 95.4895C68.7986 95.2961 67.513 95.3528 66.275 95.6563Z" fill="white"/>
<path d="M140.409 59.7983C140.801 59.7944 141.183 59.6721 141.504 59.4476C141.826 59.223 142.072 58.9065 142.21 58.5397C142.349 58.1728 142.373 57.7727 142.28 57.3918C142.187 57.0108 141.982 56.6668 141.69 56.4047C140.13 55.0469 138.186 54.2078 136.128 54.0036C134.6 53.8804 133.013 54.1118 131.565 53.6091C128.43 52.5161 127.175 48.462 124.114 47.1712C121.826 46.2058 119.192 47.0631 116.973 48.182C114.754 49.3009 112.562 50.7042 110.083 50.8631C107.928 51.0015 105.587 50.2015 103.701 51.2544C102.296 52.0393 101.559 53.6588 100.264 54.6145C98.9152 55.4463 97.3545 55.8695 95.7705 55.8328C94.1927 55.7939 92.6214 56.0506 91.1379 56.5896L91.0947 56.6091C90.7101 56.8132 90.4051 57.1404 90.2284 57.5384C90.0517 57.9365 90.0137 58.3822 90.1202 58.8045C90.2268 59.2267 90.4719 59.6009 90.8164 59.8674C91.1608 60.1338 91.5846 60.2769 92.0199 60.274L140.409 59.7983Z" fill="white"/>
<path d="M379.709 68.8426C380.341 68.8383 380.958 68.6458 381.481 68.2897C382.004 67.9336 382.409 67.43 382.645 66.843C382.881 66.2559 382.937 65.612 382.806 64.993C382.675 64.374 382.363 63.808 381.909 63.3669C379.327 61.0693 376.084 59.6489 372.644 59.3096C370.13 59.1064 367.519 59.4912 365.137 58.661C359.975 56.862 357.914 50.1939 352.878 48.0663C349.12 46.4814 344.783 47.8922 341.133 49.7301C337.483 51.5679 333.877 53.8793 329.799 54.1409C326.252 54.368 322.4 53.0523 319.297 54.7896C316.985 56.0804 315.773 58.7464 313.642 60.3183C311.557 61.8567 308.837 62.1821 306.25 62.3226C303.662 62.4631 300.985 62.4891 298.629 63.568L298.558 63.6005C297.918 63.9282 297.407 64.4628 297.109 65.1176C296.81 65.7724 296.742 66.5089 296.915 67.2074C297.088 67.9059 297.492 68.5255 298.061 68.9654C298.63 69.4053 299.332 69.6398 300.051 69.6308L379.709 68.8426Z" fill="#E6DCFF"/>
<path d="M106.275 182.443C95.8806 176.524 81.3257 177.678 73.4699 184.455C68.5196 188.726 69.141 192.511 63.9583 195.222C57.3953 198.656 49.4552 194.32 42.074 194.95C33.4194 195.69 26.3149 204.469 27.3947 213.09C27.8811 216.972 29.7218 221.119 27.8973 224.58C25.568 228.997 18.8342 229.173 16.0023 233.286C13.445 236.999 15.4381 242.483 19.1466 245.047C22.855 247.611 27.6509 247.924 32.1537 247.719C36.6566 247.515 41.233 246.886 45.6278 247.885C50.4658 248.983 54.6466 251.953 59.2468 253.799C72.629 259.165 88.4302 252.149 93.5697 249.67C99.5513 246.784 113.627 239.994 118.701 224.513C123.017 211.369 121.173 190.926 106.275 182.443Z" fill="white"/>
<g opacity="0.5">
<path opacity="0.5" d="M109.551 220.914C96.8923 235.843 73.6364 240.527 56.1868 231.663C51.1543 229.106 46.3509 225.177 44.9047 219.718C43.4585 214.26 46.8697 207.4 52.4978 206.968C56.7251 206.644 60.7038 209.806 64.9051 209.238C71.1006 208.4 73.2591 200.774 77.027 195.784C83.1956 187.613 96.7885 186.604 104.096 193.774L109.553 220.91" fill="#E6DCFF"/>
</g>
<path d="M131.713 170.745L190.153 153.22L174.549 135.873C167.056 127.542 152.117 126.27 131.727 132.226L98.9363 141.804L118.524 143.218C129.191 143.988 134.226 150.651 132.791 162.102L131.713 170.745Z" fill="#2D363A"/>
<path d="M144.199 229.623L204.72 221.912L197.501 244.11C194.034 254.766 180.897 261.994 159.845 264.83L125.991 269.389L143.318 260.145C152.754 255.11 154.651 246.976 148.695 237.094L144.199 229.623Z" fill="#2D363A"/>
<path d="M102.982 177.055V177.036L120.157 177.274L130.982 228.32L115.382 235.511V235.491C110.626 237.514 104.876 235.816 99.6734 230.034C90.6038 219.951 86.6532 201.32 90.8492 188.423C93.2487 181.024 97.8186 177.138 102.982 177.055Z" fill="#263238"/>
<path d="M116.901 223.668C124.841 232.497 134.256 230.499 137.93 219.208C141.603 207.917 138.146 191.607 130.205 182.775C122.263 173.944 112.85 175.945 109.176 187.236C105.502 198.527 108.962 214.84 116.901 223.668Z" fill="#455A64"/>
<path d="M116.901 223.668C124.841 232.497 134.256 230.499 137.93 219.208C141.603 207.917 138.146 191.607 130.205 182.775C122.263 173.944 112.85 175.945 109.176 187.236C105.502 198.527 108.962 214.84 116.901 223.668Z" fill="#455A64"/>
<path d="M233.418 126.297C296.954 112.818 357.556 128.019 374.506 145.286C374.667 145.432 374.821 145.587 374.97 145.746C374.996 145.774 375.029 145.801 375.054 145.829V145.837C375.985 146.863 376.626 148.118 376.914 149.474C377.201 150.83 377.124 152.237 376.69 153.553V153.561C376.678 153.597 376.66 153.635 376.647 153.669C376.575 153.876 376.497 154.079 376.409 154.278C367.927 176.941 318.713 215.438 255.176 228.917C194.036 241.89 136.212 236.242 130.832 235.674C130.695 235.661 130.559 235.647 130.423 235.63C126.606 235.138 122.581 232.853 118.814 228.665C108.62 217.331 104.179 196.389 108.896 181.892C110.703 176.342 113.591 172.548 117.036 170.605C121.735 167.893 172.285 139.266 233.418 126.297Z" fill="#7400E5"/>
<path d="M356.136 133.92C364.276 137.369 370.581 141.271 374.511 145.283C374.668 145.427 374.815 145.585 374.974 145.74C374.994 145.774 375.022 145.802 375.055 145.824V145.836C375.984 146.864 376.624 148.119 376.912 149.475C377.199 150.83 377.123 152.238 376.691 153.555V153.566C376.67 153.599 376.657 153.636 376.651 153.675C376.569 153.882 376.496 154.073 376.413 154.28C374.438 159.546 370.272 165.669 364.223 172.141C360.33 176.263 356.176 180.129 351.786 183.717C348.316 183.544 344.608 181.592 341.154 177.742C332.519 168.149 328.762 150.428 332.76 138.157C334.357 133.248 336.951 129.946 340.052 128.379C345.528 129.876 350.901 131.726 356.136 133.92Z" fill="white"/>
<path d="M351.791 184.26H351.764C348.007 184.073 344.198 181.944 340.758 178.107C332.023 168.403 328.207 150.409 332.251 137.992C333.85 133.082 336.467 129.592 339.817 127.9C339.937 127.839 340.076 127.826 340.205 127.862C345.702 129.365 351.096 131.224 356.351 133.426C364.517 136.885 370.931 140.855 374.901 144.908C374.982 144.98 375.082 145.081 375.183 145.184L375.355 145.356C375.373 145.374 375.39 145.393 375.406 145.413C375.448 145.446 375.485 145.487 375.514 145.532C376.481 146.623 377.147 147.948 377.447 149.376C377.747 150.803 377.669 152.284 377.223 153.672C377.214 153.719 377.2 153.764 377.18 153.806C377.174 153.83 377.167 153.853 377.157 153.875L376.919 154.482C374.923 159.804 370.67 166.042 364.621 172.512C360.712 176.651 356.541 180.534 352.133 184.136C352.037 184.216 351.916 184.259 351.791 184.26ZM340.118 128.959C337.118 130.554 334.757 133.788 333.28 138.325C329.342 150.415 333.058 167.935 341.562 177.383C344.745 180.93 348.215 182.927 351.614 183.168C355.927 179.634 360.009 175.829 363.838 171.775C369.79 165.408 373.966 159.294 375.917 154.094L376.14 153.526C376.15 153.482 376.165 153.439 376.182 153.398C376.584 152.171 376.655 150.859 376.387 149.596C376.12 148.333 375.523 147.163 374.657 146.205L374.647 146.193C374.615 146.163 374.585 146.13 374.559 146.095L374.411 145.947C374.323 145.859 374.238 145.772 374.148 145.69C370.257 141.718 363.962 137.829 355.927 134.425C350.779 132.266 345.499 130.44 340.118 128.958V128.959Z" fill="#263238"/>
<path opacity="0.15" d="M255.18 228.92C194.041 241.894 136.216 236.245 130.836 235.677C130.7 235.664 130.564 235.65 130.427 235.633C126.611 235.141 122.586 232.857 118.819 228.669C117.043 226.659 115.482 224.469 114.16 222.136C145.991 224.123 199.111 223.109 250.039 212.305C320.44 197.371 366.647 169.452 376.414 154.283C367.928 176.943 318.717 215.441 255.18 228.92Z" fill="black"/>
<path d="M142.447 138.818L180.613 150.117L178.821 155.625L126.815 175.569L118.601 168.897C107.718 160.059 94.1403 155.208 80.1216 155.149L54.3818 155.041C54.3818 155.041 69.528 149.382 87.9233 142.798C104.402 136.904 123.993 132.812 142.447 138.818Z" fill="#263238"/>
<path d="M126.815 175.569L178.822 155.622L140.654 144.325C122.201 138.319 102.867 140.504 84.2786 146.078L54.3861 155.042L80.1259 155.15C94.1446 155.209 107.722 160.06 118.605 168.898L126.815 175.569Z" fill="#7400E5"/>
<path d="M126.816 176.109C126.692 176.109 126.572 176.066 126.476 175.988L118.261 169.316C107.466 160.572 94.0153 155.767 80.1248 155.694L54.3861 155.586C54.2565 155.586 54.1313 155.539 54.0334 155.454C53.9355 155.369 53.8714 155.251 53.8528 155.123C53.8342 154.995 53.8623 154.864 53.932 154.755C54.0017 154.645 54.1084 154.565 54.2326 154.528L84.1251 145.564C105.866 139.044 124.412 138.473 140.822 143.815L178.977 155.108C179.085 155.14 179.18 155.205 179.25 155.295C179.319 155.384 179.358 155.492 179.363 155.605C179.367 155.718 179.336 155.829 179.274 155.924C179.212 156.018 179.122 156.09 179.017 156.131L127.011 176.078C126.948 176.1 126.882 176.111 126.816 176.109ZM58.0189 154.518L80.127 154.611C94.265 154.687 107.955 159.579 118.941 168.48L126.913 174.955L177.14 155.691L140.499 144.845C124.286 139.567 105.951 140.144 84.4321 146.597L58.0189 154.518Z" fill="#263238"/>
<path d="M166.966 254.448L197.263 228.626L193.39 224.32L137.765 227.207L132.966 236.639C126.608 249.135 116.17 259.08 103.383 264.825L79.9032 275.375C79.9032 275.375 96.0427 274.402 115.525 272.946C132.975 271.645 152.54 267.43 166.966 254.448Z" fill="#263238"/>
<path d="M137.765 227.207L193.39 224.32L163.093 250.142C148.666 263.124 130.111 268.977 110.86 271.43L79.9032 275.375L103.383 264.824C116.17 259.079 126.608 249.134 132.966 236.638L137.765 227.207Z" fill="#7400E5"/>
<path d="M79.9032 275.915C79.7796 275.915 79.6597 275.873 79.5636 275.795C79.4674 275.717 79.4009 275.609 79.3749 275.488C79.349 275.367 79.3653 275.241 79.4211 275.131C79.477 275.02 79.5689 274.932 79.6817 274.882L103.161 264.332C115.826 258.623 126.168 248.769 132.484 236.394L137.283 226.96C137.326 226.876 137.391 226.804 137.47 226.753C137.55 226.701 137.642 226.671 137.736 226.666L193.361 223.785C193.474 223.777 193.587 223.805 193.683 223.866C193.779 223.928 193.852 224.018 193.892 224.125C193.933 224.23 193.941 224.345 193.913 224.455C193.886 224.564 193.825 224.662 193.739 224.735L163.444 250.557C150.622 262.095 133.44 269.101 110.928 271.97L79.9713 275.914C79.9487 275.916 79.9259 275.916 79.9032 275.915ZM138.105 227.73L133.446 236.885C127.019 249.479 116.493 259.507 103.605 265.317L83.4377 274.38L110.792 270.895C133.079 268.056 150.069 261.137 162.733 249.741L191.827 224.944L138.105 227.73Z" fill="#263238"/>
<path d="M282.926 192.9C295.337 190.267 303.263 178.07 300.631 165.657C297.999 153.245 285.805 145.316 273.394 147.949C260.984 150.582 253.057 162.779 255.69 175.191C258.322 187.604 270.516 195.532 282.926 192.9Z" fill="#263238"/>
<path d="M281.948 188.286C291.81 186.193 298.11 176.5 296.018 166.636C293.926 156.772 284.235 150.471 274.373 152.563C264.51 154.655 258.211 164.348 260.303 174.213C262.395 184.077 272.086 190.378 281.948 188.286Z" fill="#7400E5"/>
<path d="M195.949 89.3672C192.842 107.538 186.377 117.487 186.377 117.487C186.377 117.487 203.333 116.384 215.291 120.354C227.248 124.325 234.596 124.215 234.596 124.215C234.596 124.215 232.975 106.161 233.947 100.245C234.812 94.9477 241.023 80.8071 241.023 80.8071L244.95 103.703L263.281 122.583L275.225 119.88L262.842 99.1359C262.351 94.6766 261.218 90.3118 259.477 86.1769C256.775 80.4114 256.503 73.2244 257.226 67.7086C257.875 62.7637 254.246 56.8707 254.246 56.8707L254.236 56.8221C253.509 53.3029 251.602 50.1375 248.832 47.849L248.489 47.5647L230.482 37.5247L224.443 37.6457C219.335 37.7547 214.244 38.2768 209.219 39.2068C206.084 39.7906 203.208 41.3329 200.986 43.6209C198.988 45.869 197.549 48.5576 196.786 51.4675C196.786 51.4675 197.36 81.1195 195.949 89.3672Z" fill="white"/>
<path d="M234.506 124.758C233.562 124.758 226.433 124.625 215.121 120.866C203.403 116.974 186.581 118.012 186.412 118.025C186.312 118.03 186.213 118.008 186.124 117.961C186.036 117.914 185.962 117.844 185.91 117.759C185.86 117.672 185.834 117.573 185.837 117.473C185.839 117.373 185.87 117.275 185.924 117.191C185.988 117.093 192.366 107.108 195.416 89.2752C196.801 81.1671 196.25 51.7734 196.245 51.4772C196.244 51.4298 196.249 51.3825 196.261 51.3366C197.048 48.3398 198.529 45.5703 200.584 43.2522C202.882 40.8779 205.863 39.2781 209.111 38.6749C214.165 37.7409 219.285 37.2156 224.423 37.1041L230.467 36.9841C230.563 36.9815 230.657 37.005 230.741 37.0522L248.741 47.0847L249.166 47.4242C252.02 49.7835 253.989 53.0414 254.752 56.6653C255.217 57.4415 258.388 62.9616 257.758 67.7724C257.343 70.9357 256.728 79.0384 259.963 85.9412C261.724 90.0905 262.869 94.4748 263.363 98.9553L275.685 119.604C275.729 119.677 275.754 119.76 275.76 119.845C275.765 119.93 275.751 120.015 275.717 120.093C275.684 120.172 275.632 120.241 275.566 120.296C275.501 120.35 275.423 120.388 275.34 120.407L263.396 123.11C263.305 123.131 263.211 123.127 263.123 123.101C263.034 123.075 262.953 123.026 262.889 122.96L244.557 104.081C244.481 104.002 244.43 103.903 244.411 103.795L240.793 82.6936C239.137 86.5855 235.145 96.2299 234.475 100.332C233.53 106.116 235.117 123.986 235.132 124.165C235.139 124.239 235.13 124.314 235.107 124.384C235.083 124.455 235.045 124.52 234.996 124.575C234.946 124.631 234.885 124.675 234.818 124.706C234.75 124.737 234.677 124.753 234.602 124.754L234.506 124.758ZM191.762 116.813C197.793 116.813 207.708 117.267 215.461 119.84C221.439 121.954 227.678 123.24 234.005 123.661C233.729 120.428 232.533 105.534 233.41 100.156C234.275 94.8482 240.269 81.1682 240.523 80.5887C240.568 80.4808 240.648 80.3909 240.749 80.3332C240.851 80.2754 240.969 80.2531 241.084 80.2698C241.2 80.2836 241.308 80.3344 241.392 80.4144C241.476 80.4944 241.533 80.5996 241.552 80.7141L245.45 103.446L263.453 121.987L274.375 119.514L262.378 99.4061C262.337 99.3379 262.312 99.262 262.304 99.1834C261.815 94.7855 260.699 90.4803 258.988 86.3995C255.637 79.2395 256.263 70.8892 256.69 67.6319C257.305 62.9388 253.82 57.2048 253.786 57.1453C253.752 57.0909 253.729 57.0308 253.717 56.968C253.015 53.552 251.168 50.4781 248.482 48.2544L248.14 47.9701L230.348 38.0652L224.454 38.1819C219.377 38.292 214.316 38.8112 209.322 39.7344C206.298 40.2924 203.523 41.7781 201.382 43.9852C199.463 46.1495 198.075 48.7313 197.328 51.5258C197.365 53.5107 197.868 81.3725 196.483 89.4547C193.909 104.505 188.975 114.061 187.359 116.895C188.287 116.858 189.827 116.812 191.762 116.812V116.813Z" fill="#263238"/>
<g opacity="0.4">
<path opacity="0.4" d="M200.699 65.3075C200.699 65.3075 201.672 79.9022 202.721 86.6352C203.771 93.3682 205.942 100.246 210.766 105.063C215.63 109.919 222.539 112.069 229.274 113.426C227.1 111.787 224.966 110.096 222.874 108.352C220.18 106.108 216.22 103.92 214.052 101.164C209.873 95.8536 208.972 89.1509 206.818 82.7444C204.834 76.8395 202.681 71.2135 200.698 65.3086" fill="black"/>
</g>
<g opacity="0.4">
<path opacity="0.4" d="M243.134 93.1391C245.038 85.5033 245.411 77.2309 245.682 69.3649C245.019 72.1162 243.331 74.499 242.286 77.1292C241.786 78.3876 240.989 80.6612 240.989 80.6612L243.098 92.9564" fill="black"/>
</g>
<path d="M221.35 55.9495C233.339 48.8749 250.483 36.9818 250.483 36.9818C250.483 36.9818 244.909 26.8672 241.971 31.7494C220.747 43.2089 173.719 37.3181 158.609 48.7333C157.909 49.2608 157.235 49.7985 156.588 50.3463L108.317 58.302V58.316C105.815 58.6542 103.392 59.4327 101.161 60.6155C68.4644 80.1021 74.9193 132.085 74.9193 132.085C74.9193 132.085 116.343 81.5983 210.408 61.0696C210.959 61.0793 211.506 60.9748 212.014 60.7625L218.863 59.4512L221.35 55.9495Z" fill="#7400E5"/>
<path d="M245.22 47.9484C249.976 52.076 249.135 59.5052 251.586 59.3982C256.573 59.1603 257.731 45.6597 254.468 40.1808C251.487 34.5213 249.136 34.1385 249.136 34.1385L245.22 47.9484Z" fill="#7400E5"/>
<path d="M246.811 37.3905C246.811 37.3905 253.168 41.6857 251.488 47.3214C249.876 40.3689 246.811 37.3905 246.811 37.3905Z" fill="#3F0088"/>
<path d="M206.757 50.1408C219.079 45.4175 224.523 65.0674 228.535 63.649C234.953 61.1311 228.494 40.0499 228.494 40.0499C228.494 40.0499 218.61 40.1375 217.578 44.1494C212.893 45.9721 207.326 45.8781 206.757 50.1408Z" fill="#7400E5"/>
<path d="M230.02 58.9371C230.196 57.7715 229.425 56.689 228.299 56.5193C227.174 56.3497 226.118 57.1571 225.943 58.3228C225.767 59.4884 226.538 60.5709 227.664 60.7405C228.789 60.9102 229.844 60.1028 230.02 58.9371Z" fill="white"/>
<path d="M252.89 56.6963C253.793 56.662 254.489 55.6795 254.444 54.5017C254.4 53.3239 253.631 52.3969 252.728 52.4312C251.825 52.4655 251.129 53.4481 251.174 54.6258C251.219 55.8036 251.987 56.7306 252.89 56.6963Z" fill="white"/>
<path d="M217.579 44.1494C217.579 44.1494 225.104 45.6565 225.724 51.5008C221.555 45.7137 217.579 44.1494 217.579 44.1494Z" fill="#3F0088"/>
<path fill-rule="evenodd" clip-rule="evenodd" d="M226.886 19.4282C227.85 23.1893 224.787 33.1872 218.144 36.5408C232.758 55.3517 245.961 58.1917 244.449 42.4565C241.584 38.3343 237.133 39.0435 244.516 29.9342C246.371 26.8834 226.886 19.4282 226.886 19.4282Z" fill="#263238"/>
<path d="M239.131 53.1982C233.753 53.1982 225.687 47.129 217.717 36.8738C217.668 36.8108 217.634 36.7378 217.616 36.66C217.599 36.5822 217.599 36.5015 217.616 36.4237C217.634 36.3459 217.668 36.2729 217.717 36.2099C217.766 36.147 217.829 36.0957 217.9 36.0597C224.277 32.8402 227.287 23.1742 226.363 19.5634C226.347 19.5046 226.342 19.4435 226.348 19.3829C226.349 19.3654 226.352 19.3481 226.355 19.331C226.378 19.2098 226.441 19.0998 226.534 19.0194C226.628 18.939 226.746 18.8929 226.869 18.8888C226.943 18.8836 227.017 18.8966 227.085 18.9266C229.889 20.0077 243.924 25.5537 245.087 28.9635C245.164 29.1668 245.195 29.385 245.176 29.6018C245.157 29.8186 245.09 30.0283 244.979 30.2154C239.588 36.8716 240.637 37.8457 242.728 39.7841C243.536 40.4888 244.261 41.2822 244.89 42.1495C244.943 42.2253 244.976 42.3136 244.985 42.4057C245.668 49.5203 243.354 51.9896 241.294 52.809C240.604 53.0746 239.87 53.2066 239.131 53.1982ZM218.964 36.7116C228.823 49.2295 237.066 53.3236 240.897 51.8036C243.337 50.8306 244.383 47.6706 243.924 42.65C243.353 41.8939 242.706 41.1987 241.993 40.5754C239.442 38.2111 238.377 36.6478 244.096 29.5937C244.113 29.4987 244.102 29.4008 244.065 29.3116C243.323 27.1321 234.105 22.8477 227.567 20.2737C227.941 24.6251 225.002 33.2359 218.964 36.7116Z" fill="#263238"/>
<path fill-rule="evenodd" clip-rule="evenodd" d="M257.322 24.9288C256.674 26.3083 254.912 25.8196 254.633 32.4478C254.457 36.5419 253.853 36.3397 249.8 41.7916C247.507 44.876 243.12 50.742 234.467 40.7105C232.897 38.89 226.816 35.9635 227.957 32.411C228.546 30.5732 228.521 25.6683 227.02 20.9288C225.22 15.2466 226.522 8.38816 230.695 4.69084C235.765 0.196756 242.928 -2.94705 254.535 7.64005C257.183 10.0541 258.597 15.2293 258.229 18.6671C258.111 20.777 257.808 22.8723 257.322 24.9288Z" fill="white"/>
<path d="M243.237 46.863C240.427 46.863 237.42 44.9646 234.059 41.0673C233.445 40.4572 232.78 39.9016 232.071 39.4068C229.718 37.6273 226.497 35.1905 227.444 32.25C227.991 30.544 227.969 25.7191 226.506 21.0974C224.552 14.9352 226.127 8.02169 230.335 4.29193C234.981 0.174068 242.575 -4.00001 254.898 7.2433C257.764 9.85737 259.138 15.2434 258.765 18.7299C258.724 19.1212 258.688 19.5223 258.652 19.9342C258.542 21.6676 258.272 23.3871 257.844 25.0704C257.836 25.1002 257.825 25.1292 257.812 25.1569C257.616 25.5389 257.349 25.8795 257.024 26.1602C256.327 26.8326 255.372 27.7548 255.175 32.4694C255.025 35.9148 254.552 36.5224 252.275 39.4446C251.717 40.1614 251.045 41.0241 250.234 42.1138C248.948 43.8435 246.795 46.7365 243.461 46.8576C243.387 46.8619 243.312 46.863 243.237 46.863ZM240.225 1.05948C236.387 1.05948 233.439 2.9849 231.053 5.09951C227.216 8.50061 225.737 15.0909 227.536 20.7688C228.986 25.3472 229.15 30.4651 228.473 32.5797C227.762 34.7916 230.512 36.8716 232.724 38.544C233.497 39.0818 234.218 39.6902 234.878 40.3614C238.057 44.0479 240.952 45.8695 243.423 45.7798C246.234 45.6771 248.122 43.1452 249.368 41.4706C250.185 40.3733 250.862 39.5051 251.422 38.784C253.621 35.9602 253.96 35.5257 254.093 32.4262C254.309 27.2791 255.444 26.1851 256.273 25.385C256.488 25.2008 256.671 24.9815 256.813 24.7364C257.215 23.1306 257.468 21.4913 257.57 19.8391C257.606 19.4218 257.643 19.0142 257.685 18.6174C258.031 15.3742 256.699 10.3536 254.164 8.04331C248.492 2.86273 243.94 1.05948 240.225 1.05948Z" fill="#263238"/>
<path fill-rule="evenodd" clip-rule="evenodd" d="M236.535 20.8651C239.752 24.2543 246.983 28.5495 250.279 29.3311C239.918 34.983 234.613 28.0781 236.535 20.8651Z" fill="white"/>
<path d="M243.339 31.957C241.605 32.0002 239.909 31.4502 238.53 30.3981C235.972 28.3873 234.984 24.5916 236.013 20.7278C236.038 20.635 236.087 20.5505 236.155 20.4831C236.224 20.4156 236.309 20.3676 236.402 20.344C236.495 20.3199 236.593 20.3213 236.685 20.3481C236.777 20.375 236.861 20.4262 236.926 20.4964C240.153 23.8965 247.254 28.064 250.404 28.8078C250.51 28.833 250.607 28.8899 250.68 28.971C250.754 29.0521 250.801 29.1537 250.815 29.2622C250.83 29.3707 250.811 29.4811 250.761 29.5788C250.712 29.6764 250.634 29.7566 250.538 29.8089C248.356 31.1168 245.881 31.8555 243.339 31.957ZM236.854 21.9397C236.306 25.0456 237.178 27.9613 239.201 29.5473C241.505 31.357 244.903 31.3127 248.859 29.4489C244.47 27.6247 240.413 25.0874 236.852 21.9397H236.854Z" fill="#263238"/>
<path fill-rule="evenodd" clip-rule="evenodd" d="M257.787 22.2076C255.847 24.4285 254.027 26.7511 252.334 29.1655C253.124 29.5596 253.984 29.7919 254.864 29.8488C255.435 25.9244 256.775 26.0952 257.325 24.9298C257.526 24.1893 257.679 22.9017 257.787 22.2076Z" fill="white"/>
<path d="M254.862 30.3893H254.837C253.885 30.329 252.955 30.079 252.101 29.6542C252.028 29.6195 251.963 29.5688 251.913 29.506C251.862 29.4431 251.826 29.3697 251.807 29.2911C251.788 29.2124 251.788 29.1306 251.805 29.0517C251.822 28.9727 251.856 28.8986 251.906 28.8347C252.188 28.4715 252.534 27.9937 252.937 27.438C254.306 25.4831 255.793 23.6136 257.39 21.8401C257.469 21.7551 257.573 21.6977 257.687 21.6765C257.801 21.6553 257.919 21.6713 258.024 21.7222C258.128 21.7731 258.213 21.8562 258.266 21.9592C258.32 22.0622 258.338 22.1796 258.32 22.2942C258.292 22.4725 258.259 22.692 258.226 22.9309C258.138 23.6516 258.011 24.3669 257.844 25.0736C257.649 25.4874 257.37 25.8557 257.024 26.1547C256.435 26.7223 255.767 27.3666 255.396 29.9212C255.379 30.0506 255.315 30.1693 255.217 30.2553C255.119 30.3413 254.993 30.389 254.862 30.3893ZM253.179 28.9385C253.576 29.0903 253.989 29.1991 254.409 29.2629C254.53 27.783 255.195 26.4006 256.276 25.3828C256.503 25.1919 256.693 24.9602 256.836 24.6996C256.884 24.5082 256.935 24.2358 256.985 23.9331C255.745 25.4077 254.66 26.905 253.813 28.0726C253.582 28.3872 253.372 28.6791 253.179 28.9385Z" fill="#263238"/>
<path d="M187.292 132.579C189.488 143.217 192.038 150.898 202.277 154.545C217.356 168.731 236.216 179.681 254.769 188.321C244.632 205.33 256.94 214.044 258.639 230.799C255.711 236.926 258.747 241.079 263.683 244.132C262.427 239.47 261.73 233.634 263.053 228.817C258.992 210.862 253.804 197.141 262.59 185.713C260.705 184.72 258.833 183.741 256.984 182.733C256.479 182.478 255.985 182.211 255.504 181.955C234.982 170.956 216.244 159.412 208.685 144.488C201.582 142.933 188.45 127.711 187.292 132.579Z" fill="#263238"/>
<path d="M235.266 125.482C231.956 117.982 236.726 116.819 230.242 112.542C224.206 110.569 209.3 119.84 197.005 114.299C192.908 112.453 189.309 111.826 186.446 116.972C186.276 117.279 185.951 122.495 186.916 130.941C188.147 141.734 195.282 148.736 205.522 152.383C220.601 166.569 239.461 177.519 258.014 186.159L260.228 180.572L265.565 167.058C253.167 152.101 238.326 139.352 221.671 129.352L222.837 128.122C224.581 127.831 233.528 125.781 235.266 125.482Z" fill="white"/>
<path d="M258.013 186.699C257.934 186.698 257.856 186.681 257.785 186.648C235.666 176.346 218.475 165.29 205.233 152.853C194.07 148.844 187.551 141.285 186.377 131.002C185.454 122.905 185.679 117.24 185.975 116.708C189.09 111.106 193.226 112.002 197.227 113.805C204.572 117.115 212.971 114.994 219.722 113.284C224.12 112.174 227.915 111.216 230.411 112.028C230.457 112.043 230.5 112.065 230.54 112.092C234.548 114.735 234.52 116.395 234.481 118.694C234.361 120.955 234.801 123.212 235.762 125.262C235.796 125.338 235.813 125.42 235.81 125.503C235.808 125.586 235.786 125.667 235.747 125.74C235.709 125.813 235.653 125.876 235.586 125.925C235.519 125.973 235.442 126.005 235.36 126.019C234.542 126.16 232.11 126.693 229.534 127.258C226.902 127.834 224.188 128.43 223.106 128.625L222.523 129.24C238.998 139.214 253.687 151.877 265.981 166.704C266.042 166.778 266.082 166.867 266.097 166.962C266.112 167.058 266.102 167.155 266.066 167.244L258.515 186.35C258.475 186.451 258.406 186.537 258.317 186.598C258.227 186.659 258.121 186.691 258.013 186.691V186.699ZM192.07 113.485C190.084 113.485 188.427 114.524 186.918 117.234C186.649 121.789 186.828 126.36 187.451 130.88C188.578 140.763 194.889 148.022 205.702 151.873C205.772 151.898 205.837 151.937 205.891 151.988C218.955 164.279 235.913 175.22 257.721 185.425L264.944 167.155C252.621 152.352 237.896 139.729 221.386 129.812C221.317 129.77 221.258 129.713 221.214 129.645C221.17 129.578 221.142 129.501 221.132 129.421C221.121 129.342 221.129 129.26 221.154 129.184C221.179 129.107 221.221 129.038 221.276 128.979L222.443 127.749C222.523 127.663 222.63 127.607 222.746 127.588C223.645 127.441 226.519 126.811 229.3 126.202C231.381 125.745 233.371 125.309 234.506 125.081C233.658 123.058 233.278 120.87 233.397 118.68C233.434 116.518 233.456 115.328 230.004 113.039C227.803 112.362 224.175 113.276 219.984 114.336C213.066 116.084 204.469 118.258 196.781 114.795C195.317 114.039 193.714 113.593 192.07 113.485Z" fill="#263238"/>
<path d="M265.569 167.053C268.64 170.767 271.567 174.621 274.35 178.615C278.443 185.135 273.224 204.53 271.294 223.839C271.129 228.205 271.942 232.012 275.267 234.334L286.81 240.328C291.891 238.116 295.086 237.614 294.716 240.352L289.305 249.569L285.139 252.771C281.704 254.501 273.521 249.884 265.456 245.396C264.465 245.036 263.517 244.568 262.629 244C257.698 240.947 257.425 236.089 260.353 229.963C258.654 213.206 247.881 203.167 258.018 186.158C257.759 185.934 258.054 183.175 258.752 179.792C259.983 173.814 262.504 165.954 265.569 167.053Z" fill="white"/>
<path d="M283.327 253.647C279.163 253.647 272.529 249.954 265.57 246.079L265.188 245.863C264.184 245.498 263.224 245.022 262.326 244.445C257.499 241.456 256.644 236.546 259.795 229.862C259.149 224.923 257.981 220.067 256.309 215.375C253.391 206.249 250.625 197.625 257.444 186.051C257.402 183.899 257.663 181.752 258.219 179.673C258.909 176.335 260.835 168.392 263.808 166.724C264.097 166.55 264.421 166.443 264.756 166.41C265.092 166.377 265.431 166.419 265.748 166.534C265.839 166.567 265.92 166.624 265.982 166.698C269.009 170.357 271.969 174.258 274.789 178.296C277.741 182.999 276.086 193.849 274.177 206.411C273.313 212.081 272.421 217.945 271.826 223.884C271.645 228.78 272.834 231.968 275.572 233.88L286.827 239.718C291.031 237.91 293.429 237.49 294.583 238.364C294.874 238.609 295.09 238.931 295.208 239.293C295.325 239.655 295.338 240.043 295.247 240.412C295.238 240.484 295.214 240.553 295.177 240.615L289.766 249.831C289.731 249.891 289.684 249.944 289.629 249.987L285.464 253.189C284.797 253.508 284.065 253.665 283.327 253.647ZM258.474 185.876C258.525 185.96 258.552 186.057 258.552 186.155C258.552 186.254 258.525 186.35 258.474 186.435C251.773 197.678 254.351 205.731 257.335 215.053C259.05 219.862 260.239 224.843 260.881 229.907C260.892 230.006 260.875 230.106 260.832 230.196C257.839 236.459 258.517 240.823 262.905 243.541C263.763 244.09 264.68 244.543 265.637 244.891L266.091 245.138C273.796 249.427 281.764 253.864 284.888 252.289L288.887 249.206L294.183 240.177C294.251 239.485 294.009 239.301 293.927 239.239C293.482 238.902 291.991 238.658 287.016 240.824C286.942 240.856 286.862 240.872 286.782 240.869C286.701 240.866 286.622 240.845 286.551 240.808L275.007 234.813C271.878 232.633 270.543 229.152 270.743 223.82C271.343 217.82 272.238 211.943 273.104 206.259C274.984 193.908 276.608 183.243 273.883 178.907C271.127 174.962 268.217 171.123 265.247 167.527C264.934 167.457 264.605 167.513 264.333 167.682C262.221 168.871 260.333 174.774 259.272 179.907C258.788 181.861 258.52 183.863 258.473 185.876H258.474Z" fill="#263238"/>
<path opacity="0.4" fill-rule="evenodd" clip-rule="evenodd" d="M186.201 117.701C201.132 119.191 215.425 124.508 227.7 133.139C231.71 128.736 234.243 120.376 233.915 110.35C230.36 118.933 201.705 123.81 188.024 113.772C187.349 115.049 186.74 116.361 186.201 117.701Z" fill="black"/>
<path fill-rule="evenodd" clip-rule="evenodd" d="M190.596 109.006C200.432 114.801 227.358 114.53 234.815 104.328L235.635 110.907C228.296 120.941 199.795 121.918 187.823 114.285L190.596 109.006Z" fill="#263238"/>
<path d="M202.705 47.595C200.7 49.715 197.67 54.768 199.393 58.7453C202.235 65.3086 200.592 71.153 203.435 80.8698C204.986 86.1671 210.189 94.0796 211.352 97.1164C212.354 99.7324 214.041 102.031 216.236 103.772C216.236 103.772 238.15 123.134 248.647 122.474C251.403 122.302 258.285 119.601 258.285 119.601L230.824 91.752C230.824 91.752 231.412 77.4265 226.83 72.593C221.274 66.7324 226.83 56.834 222.831 50.8826" fill="white"/>
<path d="M248.118 123.034C237.347 123.034 216.763 104.959 215.877 104.177C213.616 102.379 211.879 100.007 210.846 97.3088C210.067 95.5691 209.194 93.8729 208.231 92.2277C206.3 88.7261 203.894 84.3671 202.915 81.019C201.817 77.0954 201.143 73.0656 200.903 68.9984C200.594 65.3832 200.327 62.261 198.897 58.9561C197.127 54.8696 199.969 49.6988 202.313 47.2209C202.411 47.1167 202.547 47.0559 202.691 47.052C202.834 47.048 202.973 47.1012 203.077 47.1998C203.181 47.2985 203.242 47.4345 203.246 47.5779C203.25 47.7213 203.197 47.8605 203.098 47.9647C201.034 50.1485 198.343 54.9453 199.889 58.528C201.389 61.994 201.664 65.1983 201.981 68.9065C202.215 72.9017 202.876 76.8605 203.952 80.7152C204.899 83.9498 207.272 88.2504 209.179 91.7055C210.166 93.3937 211.057 95.1355 211.85 96.9229C212.818 99.4482 214.447 101.667 216.566 103.348C216.806 103.564 238.5 122.578 248.608 121.942C250.717 121.811 255.456 120.097 257.315 119.398L230.441 92.1358C230.389 92.0828 230.349 92.0198 230.322 91.9507C230.295 91.8816 230.283 91.8077 230.285 91.7336C230.292 91.5931 230.81 77.58 226.439 72.9692C223.288 69.6448 223.527 65.1659 223.757 60.8351C223.95 57.2091 224.132 53.7853 222.389 51.1874C222.347 51.1286 222.317 51.0619 222.301 50.9913C222.285 50.9208 222.284 50.8478 222.297 50.7766C222.31 50.7055 222.337 50.6376 222.376 50.5771C222.416 50.5166 222.467 50.4647 222.527 50.4244C222.587 50.3841 222.655 50.3563 222.726 50.3425C222.797 50.3288 222.87 50.3295 222.94 50.3445C223.011 50.3595 223.078 50.3885 223.137 50.4299C223.197 50.4712 223.247 50.5241 223.286 50.5853C225.231 53.4815 225.029 57.2491 224.836 60.8924C224.62 64.9951 224.393 69.2373 227.224 72.2243C231.635 76.873 231.433 89.5812 231.374 91.5401L258.672 119.222C258.735 119.286 258.781 119.365 258.806 119.45C258.831 119.536 258.835 119.627 258.816 119.715C258.798 119.802 258.757 119.884 258.699 119.952C258.642 120.02 258.568 120.073 258.484 120.106C258.2 120.214 251.491 122.84 248.683 123.015C248.492 123.028 248.308 123.034 248.118 123.034Z" fill="#263238"/>
<path d="M243.509 104.325C247.198 105.093 260.154 116.984 262.89 117.441C268.379 118.354 268.159 119.448 271.473 122.489C273.364 124.225 278.16 123.341 278.16 124.715C278.16 125.826 276.547 126.216 275.222 126.402C273.485 126.476 271.746 126.423 270.017 126.242C270.017 126.242 270.835 129.852 275.262 132.643C279.688 135.434 280.761 136.232 278.091 137.581C275.421 138.931 269.66 138.152 265.916 137.365C262.172 136.578 254.891 124.833 254.891 124.833C254.891 124.833 238.641 121.387 236.456 121.332C237.513 119.165 243.764 108.234 243.509 104.325Z" fill="white"/>
<path d="M273.79 138.855C271.104 138.792 268.43 138.471 265.805 137.897C262.099 137.119 255.738 127.205 254.556 125.318C248.887 124.118 238.111 121.916 236.444 121.874C236.354 121.872 236.265 121.847 236.187 121.802C236.109 121.756 236.043 121.692 235.996 121.615C235.949 121.537 235.922 121.449 235.918 121.359C235.914 121.268 235.932 121.178 235.972 121.097C236.149 120.732 236.472 120.124 236.887 119.336C238.768 115.783 243.17 107.463 242.968 104.362C242.963 104.279 242.977 104.196 243.009 104.119C243.041 104.042 243.091 103.974 243.153 103.92C243.216 103.865 243.291 103.826 243.371 103.805C243.451 103.784 243.536 103.782 243.617 103.798C245.689 104.231 250.21 107.726 254.575 111.108C257.972 113.737 261.817 116.716 262.977 116.91C267.444 117.654 268.331 118.566 270.099 120.386C270.576 120.875 271.123 121.44 271.836 122.094C272.675 122.865 274.347 123.059 275.689 123.216C277.303 123.404 278.698 123.566 278.698 124.719C278.698 126.462 276.225 126.809 275.294 126.94C273.795 127.034 272.291 127.005 270.797 126.854C271.796 129.078 273.454 130.941 275.548 132.189C278.726 134.193 280.129 135.127 280.075 136.267C280.035 137.098 279.172 137.642 278.333 138.067C276.896 138.661 275.344 138.93 273.79 138.855ZM237.299 120.874C241.214 121.387 254.395 124.179 255.005 124.308C255.076 124.323 255.144 124.353 255.203 124.394C255.263 124.436 255.314 124.49 255.352 124.552C257.342 127.765 263.134 136.228 266.027 136.84C271.483 137.987 275.902 138.086 277.847 137.103C278.9 136.571 278.994 136.29 278.996 136.217C279.022 135.658 276.87 134.301 274.972 133.104C270.407 130.226 269.523 126.521 269.489 126.365C269.47 126.282 269.471 126.195 269.492 126.113C269.513 126.03 269.553 125.954 269.61 125.889C269.667 125.826 269.738 125.777 269.817 125.745C269.896 125.714 269.982 125.701 270.067 125.708C271.754 125.884 273.452 125.939 275.147 125.871C277.191 125.584 277.62 125.086 277.62 124.721C276.967 124.455 276.271 124.308 275.566 124.288C274.067 124.113 272.204 123.896 271.107 122.888C270.375 122.217 269.81 121.64 269.325 121.138C267.622 119.386 266.916 118.66 262.801 117.975C261.472 117.753 258.557 115.555 253.913 111.962C250.251 109.127 246.149 105.951 244.031 105.064C243.697 108.779 239.932 115.893 237.842 119.841C237.638 120.233 237.454 120.579 237.3 120.874H237.299Z" fill="#263238"/>
</g>
<defs>
<clipPath id="clip0_313_0">
<rect width="400" height="332" fill="white"/>
</clipPath>
</defs>
</svg>
