<svg width="393" height="370" viewBox="0 0 393 370" fill="none" xmlns="http://www.w3.org/2000/svg">
<g clip-path="url(#clip0_315_0)">
<path d="M311.4 345.828C307.369 349.248 302.248 351.06 297.217 352.687C260.887 364.437 229.381 361.787 188.067 369.662C188.067 369.662 127.605 369.115 98 365.5C74.8359 362.671 49.1446 360.347 52.932 354.962C56.7194 349.577 61.7223 345.159 67.5352 342.068C73.3481 338.977 79.8075 337.298 86.39 337.169C95.049 337.075 104.518 339.526 111.839 334.902C116.702 331.83 119.37 326.302 123.429 322.222C130.053 315.572 139.973 313.265 149.359 313.314C158.745 313.363 167.995 315.449 177.348 316.23C199.695 318.095 221.898 312.502 244.173 309.922C266.448 307.342 290.673 308.283 308.886 321.365C312.569 324.01 316.107 327.406 317.071 331.837C318.2 337.007 315.434 342.408 311.4 345.828Z" fill="#E6DCFF"/>
<path opacity="0.3" d="M322.179 96.41C322.179 96.554 268.538 96.67 202.379 96.67C136.201 96.67 82.571 96.553 82.571 96.41C82.571 96.267 136.201 96.15 202.379 96.15C268.538 96.15 322.179 96.266 322.179 96.41Z" fill="#263238"/>
<path opacity="0.3" d="M120.348 183.76C120.244 183.781 120.139 183.79 120.033 183.787L119.108 183.813L115.552 183.862L102.475 183.945L59.33 184.021H56.081C56.0123 184.021 55.9463 183.994 55.8976 183.945C55.8488 183.897 55.8213 183.831 55.821 183.762C55.853 167.662 55.881 153.233 55.902 142.787C55.936 137.606 55.964 133.416 55.983 130.482C56.003 129.06 56.019 127.944 56.03 127.148C56.04 126.79 56.049 126.505 56.055 126.282C56.0524 126.183 56.0612 126.084 56.081 125.987C56.101 126.084 56.1097 126.183 56.107 126.282C56.113 126.505 56.122 126.79 56.132 127.148C56.143 127.948 56.159 129.06 56.179 130.482C56.198 133.416 56.226 137.607 56.26 142.787C56.281 153.233 56.309 167.662 56.341 183.762L56.081 183.502H59.33L102.475 183.578L115.552 183.661L119.108 183.71L120.033 183.736C120.139 183.732 120.244 183.741 120.348 183.76Z" fill="#263238"/>
<path opacity="0.3" d="M178.698 95.672C178.842 95.672 178.958 80.6645 178.958 62.152C178.958 43.6394 178.842 28.632 178.698 28.632C178.554 28.632 178.438 43.6394 178.438 62.152C178.438 80.6645 178.554 95.672 178.698 95.672Z" fill="#263238"/>
<path d="M289.721 142.476C289.721 142.476 365.076 228.394 323.647 306.169C311.922 291.752 297.738 284.132 285.788 284.73C269.219 285.562 259.662 307.205 247.259 312.241C234.856 317.277 216.208 286.477 193.697 298.856C227.266 234.986 206.354 148.088 206.354 148.088L289.721 142.476Z" fill="#3F0088"/>
<path d="M186.117 135.448C186.117 135.448 177.217 144.279 174.717 160.187C172.717 172.937 176.477 188.23 180.05 198.354C186.05 215.354 180.604 231.937 180.604 231.937L132.78 256.889L145.35 276.14L194.423 254.375L204.713 233.3L186.117 135.448Z" fill="white"/>
<path d="M145.35 276.64C145.267 276.64 145.185 276.619 145.112 276.58C145.039 276.54 144.976 276.483 144.931 276.413L132.366 257.162C132.328 257.103 132.302 257.038 132.291 256.969C132.28 256.9 132.283 256.829 132.301 256.762C132.319 256.694 132.35 256.631 132.394 256.577C132.438 256.522 132.492 256.477 132.554 256.445L180.194 231.59C180.763 229.7 185.113 214.19 179.584 198.52C177.216 191.807 171.951 174.625 174.229 160.11C176.721 144.223 185.677 135.183 185.767 135.094C185.831 135.03 185.912 134.985 186 134.963C186.088 134.941 186.181 134.944 186.268 134.971C186.354 134.997 186.432 135.047 186.493 135.115C186.553 135.183 186.594 135.266 186.611 135.355L205.2 233.208C205.22 233.314 205.205 233.424 205.158 233.521L194.869 254.594C194.817 254.699 194.73 254.783 194.623 254.831L145.553 276.6C145.489 276.627 145.42 276.641 145.35 276.64ZM133.5 257.077L145.532 275.51L194.05 253.992L204.186 233.231L185.809 136.522C180.178 143.321 176.512 151.531 175.209 160.263C172.967 174.554 178.176 191.545 180.52 198.187C186.507 215.151 181.133 231.924 181.078 232.092C181.037 232.216 180.95 232.319 180.835 232.379L133.5 257.077Z" fill="#263238"/>
<path d="M176.135 268.788C176.135 268.788 174.474 265.596 179.142 263.167L186.71 263.15L201.483 237.658C201.483 237.658 182.563 190.275 180.721 164.052C180.01 155.272 182.14 146.495 186.795 139.017L203.31 131.905C203.31 131.905 243.97 119.736 257.732 123.292C272.302 127.057 295.557 151.769 296.014 166.432C296.465 180.894 270.014 219.347 270.014 219.347L250.1 255.759L210.6 272L176.135 268.788Z" fill="white"/>
<path d="M210.6 272.5H210.553L176.093 269.289C176.009 269.282 175.928 269.253 175.859 269.206C175.789 269.159 175.732 269.096 175.693 269.021C175.673 268.985 173.859 265.356 178.913 262.726C178.984 262.689 179.062 262.669 179.142 262.669L186.422 262.652L200.93 237.619C199.51 234.019 181.984 189.16 180.223 164.089C179.535 155.196 181.694 146.314 186.389 138.73C186.442 138.656 186.514 138.597 186.598 138.561L203.114 131.449C204.835 130.93 244.125 119.266 257.859 122.81C264.859 124.619 274.314 131.374 282.537 140.442C291.076 149.858 296.302 159.569 296.516 166.42C296.967 180.88 271.516 218.059 270.428 219.634L250.535 256C250.48 256.1 250.393 256.179 250.287 256.223L210.787 272.463C210.728 272.487 210.664 272.5 210.6 272.5ZM176.486 268.319L210.524 271.491L249.749 255.364L269.581 219.108C269.871 218.681 295.961 180.583 295.519 166.449C295.063 151.821 271.619 127.397 257.613 123.777C244.145 120.298 203.865 132.263 203.46 132.385L187.132 139.419C182.634 146.797 180.568 155.403 181.226 164.019C183.041 189.865 201.764 237.002 201.953 237.475C201.981 237.545 201.993 237.621 201.988 237.697C201.982 237.773 201.96 237.846 201.922 237.912L187.142 263.4C187.098 263.476 187.035 263.538 186.959 263.582C186.883 263.626 186.797 263.649 186.71 263.649L179.266 263.667C175.875 265.48 176.24 267.609 176.481 268.318L176.486 268.319Z" fill="#263238"/>
<path d="M195.209 286.464C213.93 266.507 229.006 250.235 228.882 250.119C228.759 250.003 213.483 266.088 194.763 286.045C176.042 306.002 160.966 322.274 161.09 322.389C161.213 322.505 176.489 306.42 195.209 286.464Z" fill="#455A64"/>
<path d="M269.141 164.052C269.141 164.052 258.762 168.92 255.867 183.582C253.75 194.303 256.416 202.043 251.467 213.182C247.155 222.902 245.467 239.932 245.467 239.932C245.467 239.932 193.367 256.791 190.5 260.632C188.819 262.89 188.752 263.564 187.455 264.751C190.079 267.443 192.697 270.142 195.363 272.793C195.729 271.728 199.705 271.993 199.705 271.993C199.705 271.993 253.005 268.13 261.312 254.681C269.619 241.232 285.967 246.081 284.263 234.338C282.524 222.348 299.069 189.445 293.19 165.02C291.148 156.535 286.926 155.663 286.926 155.663" fill="white"/>
<path d="M195.361 273.292C195.232 273.294 195.108 273.244 195.015 273.154C192.656 270.808 190.296 268.386 188.015 266.044L187.102 265.107C187.055 265.059 187.019 265.002 186.994 264.94C186.97 264.877 186.958 264.811 186.96 264.744C186.962 264.677 186.978 264.611 187.006 264.55C187.034 264.489 187.074 264.434 187.123 264.389C187.73 263.828 188.248 263.177 188.657 262.458C188.997 261.925 189.42 261.258 190.104 260.341C192.93 256.547 238.382 241.709 245.009 239.561C245.272 237.144 247.049 221.922 251.015 212.984C254.015 206.217 254.175 200.759 254.342 194.984C254.354 191.128 254.7 187.28 255.377 183.484C258.287 168.744 268.823 163.647 268.93 163.597C269.05 163.544 269.185 163.539 269.308 163.585C269.431 163.63 269.531 163.722 269.587 163.841C269.642 163.959 269.649 164.095 269.606 164.219C269.563 164.342 269.472 164.444 269.355 164.502C269.255 164.55 259.167 169.455 256.355 183.677C255.69 187.418 255.35 191.209 255.339 195.008C255.169 200.888 255.008 206.441 251.926 213.388C247.697 222.921 245.984 239.815 245.967 239.988C245.957 240.085 245.92 240.177 245.859 240.253C245.798 240.329 245.716 240.385 245.623 240.415C231.173 245.091 193.173 257.893 190.903 260.941C190.24 261.832 189.828 262.478 189.497 262.998C189.122 263.637 188.675 264.232 188.166 264.771L188.729 265.348C190.888 267.565 193.118 269.854 195.348 272.078C196.368 271.378 198.66 271.432 199.741 271.502C200.202 271.464 252.813 267.502 260.889 254.426C264.925 247.89 270.86 245.567 275.628 243.7C280.841 241.66 284.607 240.185 283.77 234.418C283.083 229.678 285.184 221.771 287.617 212.618C291.477 198.087 296.282 180.001 292.707 165.149C290.779 157.137 286.864 156.172 286.824 156.164C286.695 156.135 286.582 156.057 286.511 155.946C286.439 155.834 286.415 155.699 286.443 155.57C286.471 155.441 286.548 155.329 286.658 155.257C286.768 155.185 286.902 155.159 287.031 155.185C287.216 155.223 291.587 156.221 293.679 164.914C297.313 180.014 292.472 198.233 288.579 212.874C286.179 221.924 284.099 229.74 284.757 234.274C285.707 240.827 281.204 242.589 275.99 244.63C271.36 246.443 265.597 248.698 261.737 254.95C253.393 268.462 201.926 272.34 199.737 272.499C197.693 272.37 195.955 272.646 195.832 272.963C195.802 273.042 195.753 273.112 195.689 273.167C195.625 273.223 195.549 273.262 195.467 273.281C195.432 273.288 195.397 273.292 195.361 273.292Z" fill="#263238"/>
<path d="M184.955 273.711L107.121 235.9C103.213 234.001 98.891 233.116 94.5516 233.326C90.2122 233.536 85.9953 234.833 82.289 237.1C79.0934 239.055 76.3599 241.68 74.2771 244.793C72.1943 247.907 70.8117 251.435 70.2246 255.135C69.6376 258.835 69.8602 262.618 70.8769 266.224C71.8937 269.829 73.6804 273.171 76.114 276.019L109.833 315.482L195.933 327.389L203.992 278.623L194.423 263.804L184.955 273.711Z" fill="#2D363A"/>
<path d="M137.94 289.853C138.222 290.155 138.542 290.419 138.892 290.639C139.527 291.113 140.463 291.775 141.631 292.575C143.967 294.175 147.247 296.31 150.948 298.541C154.649 300.772 158.072 302.673 160.579 303.99C161.832 304.649 162.855 305.166 163.57 305.506C163.928 305.713 164.31 305.873 164.709 305.981C164.397 305.71 164.052 305.479 163.682 305.296L160.787 303.61C158.337 302.198 154.958 300.24 151.263 298.015C147.568 295.79 144.263 293.715 141.863 292.215L139.019 290.444C138.686 290.202 138.323 290.003 137.94 289.853Z" fill="white"/>
<path d="M302.328 292.756C302.328 292.756 294.599 255.427 290.628 249.686C286.657 243.945 278.262 231.086 267.663 229.764C257.064 228.442 235.395 241.153 231.449 246.153C221.468 258.796 158.507 325.453 159.277 324.579L179.571 338.579L201.014 331.779H262.557C262.557 331.779 305.181 324.579 302.328 292.756Z" fill="#263238"/>
<path d="M201.01 331.783C201.325 331.793 201.639 331.776 201.951 331.731C202.85 331.652 203.743 331.511 204.623 331.308C207.847 330.517 210.985 329.409 213.991 328C223.88 323.317 233.186 317.493 241.72 310.645C251.877 302.87 260.694 295.314 266.52 289.27C268.865 286.925 271.018 284.396 272.96 281.707C273.492 280.978 273.973 280.214 274.401 279.42C274.571 279.156 274.718 278.877 274.84 278.587C274.637 278.828 274.454 279.085 274.295 279.357C273.825 280.12 273.315 280.858 272.767 281.567C270.762 284.187 268.571 286.66 266.212 288.967C258.382 296.553 250.076 303.631 241.345 310.159C232.839 316.972 223.605 322.822 213.81 327.6C210.84 329.035 207.747 330.197 204.567 331.073C203.7 331.298 202.821 331.476 201.935 331.606C201.622 331.638 201.313 331.698 201.01 331.783Z" fill="white"/>
<path d="M224.614 322.1C224.614 322.1 238.53 327.764 237.077 334.252C235.624 340.74 228.445 343.744 221.189 343.052C213.933 342.36 200.577 336.376 200.577 336.376L193.698 332.733C193.698 332.733 202.06 332.603 206.281 331.091C211.172 329.348 224.614 322.1 224.614 322.1Z" fill="white"/>
<path d="M223.145 343.651C222.47 343.651 221.8 343.62 221.145 343.557C213.89 342.869 200.924 337.085 200.376 336.839L193.466 333.182C193.368 333.13 193.291 333.047 193.245 332.946C193.2 332.845 193.189 332.731 193.215 332.624C193.241 332.516 193.302 332.42 193.389 332.351C193.475 332.282 193.582 332.243 193.693 332.241C193.776 332.241 202.022 332.095 206.115 330.629C210.915 328.909 224.246 321.736 224.38 321.664C224.445 321.63 224.517 321.61 224.59 321.606C224.664 321.602 224.738 321.615 224.806 321.642C225.39 321.879 239.096 327.542 237.569 334.367C236.1 340.9 229.416 343.651 223.145 343.651ZM195.588 333.176L200.812 335.942C200.912 335.987 214.146 341.888 221.236 342.561C227.587 343.166 235.102 340.79 236.589 334.147C237.84 328.563 226.366 323.399 224.641 322.658C222.849 323.62 211.041 329.925 206.451 331.57C203.395 332.664 198.326 333.046 195.588 333.177V333.176Z" fill="#263238"/>
<path d="M207.4 337.303L158.03 345.068L53.715 334.675L50 328.5L110.9 319L207.369 332.868C207.903 332.945 208.391 333.211 208.744 333.619C209.097 334.026 209.292 334.548 209.292 335.087C209.292 335.621 209.102 336.138 208.755 336.544C208.408 336.951 207.928 337.22 207.4 337.303Z" fill="#263238"/>
<path d="M207.4 333.477L158.03 341.242L53.715 330.849L110.9 315.174L207.369 329.042C207.903 329.119 208.391 329.385 208.744 329.793C209.097 330.2 209.292 330.722 209.292 331.261C209.292 331.795 209.102 332.312 208.755 332.718C208.408 333.124 207.928 333.394 207.4 333.477Z" fill="#7400E5"/>
<path d="M158.033 341.741H157.983L53.6649 331.346C53.5491 331.334 53.4412 331.282 53.3597 331.199C53.2783 331.115 53.2284 331.006 53.2187 330.89C53.2089 330.774 53.24 330.659 53.3065 330.563C53.373 330.468 53.4708 330.398 53.5829 330.367L110.771 314.692C110.836 314.674 110.904 314.669 110.971 314.679L207.44 328.547C208.089 328.641 208.684 328.965 209.115 329.459C209.546 329.954 209.786 330.587 209.79 331.243C209.794 331.9 209.563 332.536 209.139 333.036C208.714 333.537 208.124 333.868 207.476 333.971L158.107 341.736C158.082 341.739 158.058 341.741 158.033 341.741ZM56.4469 330.618L158.018 340.737L207.324 332.982C207.735 332.919 208.11 332.711 208.38 332.395C208.65 332.079 208.798 331.677 208.796 331.261C208.794 330.842 208.642 330.438 208.368 330.122C208.094 329.805 207.716 329.598 207.302 329.536L110.937 315.682L56.4469 330.618Z" fill="#263238"/>
<path d="M144.734 262.66L156.694 333.334C156.851 334.262 156.792 335.215 156.521 336.116C156.251 337.018 155.775 337.846 155.133 338.534C154.49 339.222 153.697 339.753 152.816 340.085C151.935 340.416 150.989 340.54 150.052 340.447L53.715 330.847C52.3925 330.715 51.1488 330.157 50.1719 329.255C49.195 328.354 48.5379 327.16 48.3 325.852L35.27 254.311C35.0994 253.374 35.1496 252.411 35.4166 251.497C35.6837 250.583 36.1602 249.744 36.8084 249.047C37.4565 248.35 38.2584 247.813 39.1503 247.48C40.0421 247.147 40.9994 247.026 41.946 247.128L139.352 257.595C140.679 257.737 141.922 258.309 142.894 259.224C143.865 260.138 144.511 261.345 144.734 262.66Z" fill="#7400E5"/>
<path d="M150.673 340.978C150.45 340.978 150.226 340.967 150.001 340.944L53.665 331.344C52.2363 331.197 50.8936 330.592 49.8376 329.619C48.7816 328.645 48.0692 327.356 47.807 325.944L34.778 254.4C34.5938 253.387 34.6483 252.345 34.9374 251.356C35.2264 250.368 35.742 249.461 36.443 248.706C37.1441 247.952 38.0114 247.372 38.976 247.011C39.9407 246.651 40.9761 246.52 42 246.63L139.406 257.1C140.839 257.258 142.182 257.878 143.232 258.866C144.283 259.855 144.983 261.158 145.227 262.579L157.187 333.254C157.347 334.202 157.299 335.174 157.046 336.102C156.792 337.03 156.34 337.891 155.72 338.626C155.1 339.362 154.327 339.953 153.456 340.36C152.584 340.767 151.635 340.978 150.673 340.981V340.978ZM41.273 247.591C40.4507 247.594 39.6389 247.776 38.8949 248.127C38.1509 248.477 37.4928 248.986 36.9669 249.618C36.441 250.25 36.0601 250.99 35.851 251.785C35.642 252.581 35.6099 253.412 35.757 254.221L48.786 325.765C49.0085 326.964 49.6133 328.059 50.5099 328.886C51.4065 329.713 52.5467 330.227 53.76 330.352L150.096 339.952C150.956 340.038 151.825 339.924 152.634 339.619C153.444 339.315 154.172 338.827 154.762 338.195C155.352 337.563 155.789 336.804 156.037 335.975C156.286 335.147 156.34 334.273 156.196 333.42L144.236 262.745C144.028 261.539 143.434 260.433 142.542 259.594C141.651 258.755 140.511 258.229 139.294 258.095L41.893 247.624C41.6887 247.602 41.4834 247.591 41.278 247.591H41.273Z" fill="#263238"/>
<path d="M90.724 300.218C94.1432 300.218 96.915 297.108 96.915 293.272C96.915 289.436 94.1432 286.326 90.724 286.326C87.3048 286.326 84.533 289.436 84.533 293.272C84.533 297.108 87.3048 300.218 90.724 300.218Z" fill="#263238"/>
<path d="M154.785 286.675C158.185 283.622 155.366 280.062 161.508 274.264C166.092 269.936 183.084 258.975 199.922 253.353C199.922 253.353 201.822 262.185 203.044 264.919C204.104 267.288 208.712 273.619 208.712 273.619L183.812 281.656L183.989 293.631C183.998 294.216 183.889 294.796 183.669 295.339C183.45 295.881 183.124 296.374 182.711 296.788C182.298 297.202 181.806 297.529 181.265 297.75C180.723 297.971 180.143 298.082 179.558 298.075L170.027 297.961C170.027 297.961 172.808 309.716 172.347 310.437C172.094 310.833 171.737 311.15 171.313 311.353C170.89 311.556 170.419 311.637 169.952 311.587C169.486 311.537 169.042 311.357 168.672 311.069C168.302 310.78 168.02 310.394 167.857 309.954C167.483 308.369 159.639 289.376 159.639 289.376C159.639 289.376 153.515 294.801 152.788 292.27C152.792 292.268 151.389 289.728 154.785 286.675Z" fill="white"/>
<path d="M170.275 312.107C170.096 312.107 169.917 312.092 169.74 312.062C169.196 311.993 168.683 311.768 168.263 311.414C167.844 311.06 167.535 310.593 167.375 310.068C167.096 308.883 162.213 296.915 159.445 290.205C158.059 291.37 154.86 293.855 153.236 293.378C153.018 293.315 152.819 293.198 152.66 293.036C152.501 292.874 152.386 292.674 152.327 292.455C152.121 292.032 151.035 289.375 154.452 286.305C155.566 285.219 156.267 283.779 156.435 282.232C157.007 278.994 158.677 276.052 161.165 273.902C165.947 269.385 182.936 258.502 199.765 252.881C199.832 252.859 199.902 252.851 199.972 252.858C200.042 252.865 200.11 252.886 200.171 252.921C200.232 252.956 200.285 253.003 200.326 253.06C200.368 253.116 200.397 253.181 200.412 253.25C200.431 253.338 202.312 262.062 203.5 264.718C204.526 267.012 209.071 273.262 209.117 273.325C209.163 273.389 209.194 273.463 209.206 273.541C209.219 273.619 209.212 273.699 209.188 273.774C209.163 273.849 209.122 273.917 209.066 273.973C209.01 274.029 208.941 274.071 208.866 274.095L184.323 282.019L184.494 293.619C184.504 294.266 184.385 294.908 184.144 295.508C183.903 296.109 183.545 296.655 183.091 297.116C182.637 297.577 182.096 297.943 181.5 298.192C180.903 298.442 180.263 298.571 179.616 298.571H179.556L170.664 298.465C172.435 306.005 173.143 310.121 172.771 310.702C172.51 311.131 172.144 311.485 171.707 311.731C171.27 311.977 170.777 312.107 170.275 312.107ZM159.643 288.875C159.681 288.875 159.718 288.879 159.755 288.888C159.833 288.906 159.906 288.943 159.967 288.995C160.027 289.047 160.075 289.113 160.105 289.188C160.426 289.964 167.968 308.236 168.347 309.841C168.467 310.172 168.677 310.462 168.952 310.681C169.228 310.9 169.559 311.037 169.908 311.079C170.298 311.152 170.7 311.104 171.062 310.941C171.423 310.779 171.726 310.509 171.93 310.169C172.055 309.528 170.83 303.495 169.545 298.078C169.528 298.004 169.528 297.927 169.545 297.852C169.563 297.778 169.597 297.709 169.645 297.65C169.695 297.593 169.757 297.547 169.826 297.515C169.894 297.483 169.969 297.465 170.045 297.463L179.575 297.577C180.093 297.581 180.606 297.483 181.086 297.287C181.565 297.091 182.001 296.802 182.368 296.437C182.736 296.071 183.026 295.634 183.221 295.153C183.415 294.672 183.511 294.156 183.501 293.637L183.324 281.662C183.322 281.555 183.355 281.45 183.418 281.363C183.48 281.276 183.569 281.212 183.671 281.179L207.912 273.353C205.961 270.73 204.184 267.981 202.595 265.124C201.529 262.739 199.995 255.995 199.561 254.006C183.048 259.626 166.535 270.213 161.861 274.627C159.516 276.638 157.945 279.405 157.421 282.45C157.208 284.201 156.399 285.825 155.13 287.05C152.065 289.804 153.23 292.006 153.24 292.028C153.258 292.059 153.273 292.093 153.283 292.128C153.343 292.336 153.434 292.389 153.525 292.415C154.525 292.715 157.519 290.594 159.325 288.998C159.413 288.921 159.526 288.877 159.643 288.874V288.875Z" fill="#263238"/>
<path d="M114.554 44.394H23C21.3431 44.394 20 45.7372 20 47.394V132.448C20 134.105 21.3431 135.448 23 135.448H114.554C116.211 135.448 117.554 134.105 117.554 132.448V47.394C117.554 45.7372 116.211 44.394 114.554 44.394Z" fill="#E6DCFF"/>
<g style="mix-blend-mode:screen">
<g style="mix-blend-mode:screen">
<path d="M114.554 44.394H23C21.3431 44.394 20 45.7372 20 47.394V51.024C20 52.6809 21.3431 54.024 23 54.024H114.554C116.211 54.024 117.554 52.6809 117.554 51.024V47.394C117.554 45.7372 116.211 44.394 114.554 44.394Z" fill="#252A30"/>
</g>
</g>
<path d="M94.702 51.0831C95.6768 51.0831 96.467 50.2929 96.467 49.3181C96.467 48.3433 95.6768 47.5531 94.702 47.5531C93.7272 47.5531 92.937 48.3433 92.937 49.3181C92.937 50.2929 93.7272 51.0831 94.702 51.0831Z" fill="white"/>
<path d="M102.072 51.0831C103.047 51.0831 103.837 50.2929 103.837 49.3181C103.837 48.3433 103.047 47.5531 102.072 47.5531C101.097 47.5531 100.307 48.3433 100.307 49.3181C100.307 50.2929 101.097 51.0831 102.072 51.0831Z" fill="white"/>
<path d="M108.917 51.268C109.892 51.268 110.682 50.4778 110.682 49.503C110.682 48.5283 109.892 47.738 108.917 47.738C107.942 47.738 107.152 48.5283 107.152 49.503C107.152 50.4778 107.942 51.268 108.917 51.268Z" fill="white"/>
<path d="M51.1629 62.9751H37.3459V64.1361H51.1629V62.9751Z" fill="white"/>
<path d="M67.381 62.9751H53.564V64.1361H67.381V62.9751Z" fill="white"/>
<path d="M63.046 69.2311H41.62V70.3921H63.046V69.2311Z" fill="white"/>
<path d="M77.48 69.2311H66.589V70.3921H77.48V69.2311Z" fill="white"/>
<path d="M58.463 75.4871H49.053V76.6481H58.463V75.4871Z" fill="white"/>
<path d="M95.118 75.4871H63.901V76.6481H95.118V75.4871Z" fill="white"/>
<path d="M92.038 81.7421H56.361V82.9031H92.038V81.7421Z" fill="white"/>
<path d="M58.4209 87.998H47.4409V89.159H58.4209V87.998Z" fill="white"/>
<path d="M74.0989 87.998H63.1189V89.159H74.0989V87.998Z" fill="white"/>
<path d="M53.3189 120.454H37.3459V121.615H53.3189V120.454Z" fill="white"/>
<path d="M74.8879 120.454H58.9139V121.615H74.8879V120.454Z" fill="white"/>
<path d="M95.874 120.454H79.901V121.615H95.874V120.454Z" fill="white"/>
<path d="M72.837 114.198H41.62V115.359H72.837V114.198Z" fill="white"/>
<path d="M108.921 114.198H77.704V115.359H108.921V114.198Z" fill="white"/>
<path d="M80.031 107.942H49.053V109.103H80.031V107.942Z" fill="white"/>
<path d="M91.353 107.942H82.731V109.103H91.353V107.942Z" fill="white"/>
<path d="M58.6909 101.687H47.0289V102.848H58.6909V101.687Z" fill="white"/>
<path d="M76.5469 101.687H64.8849V102.848H76.5469V101.687Z" fill="white"/>
<path d="M95.709 101.687H84.047V102.848H95.709V101.687Z" fill="white"/>
<path d="M76.9 95.4312H60.548V96.5922H76.9V95.4312Z" fill="white"/>
<path d="M54.378 95.4312H38.026V96.5922H54.378V95.4312Z" fill="white"/>
<path d="M29.7891 61.86H28.3031V63.347H29.7891V61.86Z" fill="#F8FAFB"/>
<path d="M29.79 116.4H28.3V113.37H29.79V116.4ZM29.79 108.821H28.3V105.79H29.79V108.821ZM29.79 101.242H28.3V98.211H29.79V101.242ZM29.79 93.663H28.3V90.632H29.79V93.663ZM29.79 86.084H28.3V83.053H29.79V86.084ZM29.79 78.505H28.3V75.473H29.79V78.505ZM29.79 70.926H28.3V67.894H29.79V70.926Z" fill="#F8FAFB"/>
<path d="M29.7891 120.949H28.3031V122.436H29.7891V120.949Z" fill="#F8FAFB"/>
<path d="M389.123 64.402H314.793C313.136 64.402 311.793 65.7451 311.793 67.402V110.917C311.793 112.574 313.136 113.917 314.793 113.917H389.123C390.78 113.917 392.123 112.574 392.123 110.917V67.402C392.123 65.7451 390.78 64.402 389.123 64.402Z" fill="#E6DCFF"/>
<path d="M342.992 84.318L333.435 88.4L342.992 92.419L341.741 95.3L330.28 90.183V86.64L341.742 81.489L342.992 84.318Z" fill="white"/>
<path d="M357.077 74.88L350.14 101.526L346.84 100.752L353.8 74.136L357.077 74.88Z" fill="white"/>
<path d="M373.664 86.64V90.183L362.2 95.3L360.95 92.412L370.477 88.393L360.95 84.314L362.2 81.486L373.664 86.64Z" fill="white"/>
<path d="M198.835 0H159.081C157.424 0 156.081 1.34315 156.081 3V29.596C156.081 31.2529 157.424 32.596 159.081 32.596H198.835C200.492 32.596 201.835 31.2529 201.835 29.596V3C201.835 1.34315 200.492 0 198.835 0Z" fill="#E6DCFF"/>
<path d="M175.22 7.03696C173.748 7.03696 173.258 7.43696 173.258 8.53696V13.443C173.258 15.359 172.464 15.943 171.132 16.317C172.464 16.667 173.258 17.251 173.258 19.143V24.049C173.258 25.149 173.772 25.549 175.22 25.549V27.698C171.506 27.698 170.454 26.507 170.454 24.03V19.372C170.454 18.04 170.104 17.526 168.889 17.526V15.073C170.104 15.073 170.454 14.536 170.454 13.204V8.55496C170.454 6.05496 171.505 4.88696 175.22 4.88696V7.03696Z" fill="white"/>
<path d="M187.462 8.55494V13.1999C187.462 14.5319 187.812 15.0689 189.051 15.0689V17.5219C187.813 17.5219 187.462 18.0359 187.462 19.3679V24.0199C187.462 26.4959 186.411 27.6879 182.696 27.6879V25.5389C184.144 25.5389 184.658 25.1389 184.658 24.0389V19.1379C184.658 17.2459 185.452 16.6619 186.784 16.3119C185.452 15.9379 184.658 15.3539 184.658 13.4379V8.53194C184.658 7.43194 184.168 7.03194 182.696 7.03194V4.88794C186.411 4.88794 187.462 6.05594 187.462 8.55494Z" fill="white"/>
<path d="M262.528 128C263.69 136.178 253.471 147.965 261.995 154.033C272.44 157.1 287.155 145.4 291.968 152L295.386 155.93C295.386 155.93 293.075 144.807 289.799 140.779C286.523 136.751 280.352 135.228 280.352 135.228L272.144 128.128C272.144 128.128 266.616 122.93 262.528 128Z" fill="#7400E5"/>
<path d="M268.185 150.56C270.269 149.561 271.134 147.032 270.118 144.912C269.101 142.792 266.588 141.884 264.504 142.883C262.419 143.883 261.554 146.411 262.571 148.531C263.587 150.651 266.101 151.56 268.185 150.56Z" fill="white"/>
<path d="M183.793 137.958C190.555 141.658 193.651 155.889 202.951 152.912C211.085 146.821 210.572 129.285 218.191 129.374L223.039 129.017C223.039 129.017 213.434 124.525 208.592 124.722C203.75 124.919 199.162 128.679 199.162 128.679L189.262 130.842C189.262 130.842 182.294 132.07 183.793 137.958Z" fill="#7400E5"/>
<path d="M203.819 146.346C204.237 144.23 202.832 142.169 200.679 141.744C198.526 141.319 196.442 142.689 196.024 144.805C195.606 146.922 197.012 148.982 199.164 149.408C201.317 149.833 203.401 148.463 203.819 146.346Z" fill="white"/>
<path d="M243.191 194.77C245.301 185.57 240.168 176.542 231.727 174.607C223.286 172.672 214.734 178.561 212.624 187.761C210.515 196.962 215.647 205.989 224.088 207.924C232.529 209.86 241.081 203.97 243.191 194.77Z" fill="#263238"/>
<path d="M202.333 135.6C203.014 139.338 211.169 150.835 213.518 158.387C214.57 159.792 216.04 160.827 217.718 161.343L229.79 162.218L238.231 160.687L248.931 144.449L250.244 126.34L232.914 120.8L211.158 120.535C211.158 120.535 201.649 131.863 202.333 135.6Z" fill="white"/>
<path d="M229.79 162.72H229.754L217.683 161.845C217.649 161.842 217.616 161.836 217.583 161.826C215.787 161.282 214.215 160.172 213.1 158.663C213.074 158.625 213.055 158.583 213.041 158.539C211.797 154.539 208.897 149.408 206.341 144.882C204.105 140.926 202.174 137.509 201.841 135.694C201.135 131.835 209.786 121.394 210.776 120.216C210.882 120.114 211.019 120.051 211.165 120.037L232.921 120.302C232.97 120.303 233.02 120.311 233.067 120.325L250.392 125.867C250.499 125.901 250.592 125.97 250.654 126.063C250.717 126.156 250.747 126.268 250.739 126.38L249.427 144.489C249.42 144.574 249.393 144.656 249.346 144.728L238.646 160.965C238.609 161.022 238.56 161.07 238.504 161.107C238.447 161.145 238.384 161.17 238.317 161.182L229.876 162.712C229.848 162.717 229.819 162.72 229.79 162.72ZM217.811 160.85L229.763 161.717L237.932 160.236L248.438 144.287L249.712 126.7L232.833 121.3L211.39 121.039C208.69 124.283 202.308 132.689 202.826 135.513C203.126 137.162 205.11 140.673 207.21 144.389C209.778 148.934 212.688 154.081 213.975 158.173C214.948 159.438 216.288 160.373 217.811 160.85Z" fill="#263238"/>
<path d="M230.027 65.4401C262 66.6251 258.635 97.559 258.635 97.559C259.495 97.9018 260.275 98.4205 260.923 99.0819C261.571 99.7434 262.074 100.533 262.4 101.4C263.381 104.265 262.535 115.153 261.147 118.68C259.759 122.207 255.695 124.937 255.695 124.937C255.705 129.122 255.142 133.289 254.022 137.322C252.213 143.437 242.009 161.084 236.622 163.191C231.235 165.298 215.746 162.883 215.122 162.703C213.374 161.371 213.522 158.387 213.522 158.387C213.522 158.387 215.548 159.744 217.297 158.905C217.857 158.208 218.573 157.652 219.386 157.282C220.2 156.912 221.09 156.738 221.983 156.774C226.835 157.126 228.64 160.115 228.64 160.115C231.007 160.47 233.423 160.278 235.704 159.554C243.115 154.138 246.429 144.508 246.429 144.508C246.429 144.508 246.762 133.346 246.563 131.191C237.738 139.654 223.995 138.835 223.995 138.835C223.995 138.835 220.422 133.672 218.963 132.759C217.026 131.549 214.226 132.416 214.226 132.416L212.792 137.875C206.612 139 204.127 137.158 202.336 135.601C200.545 134.044 200.66 122.629 200.66 122.629L198.077 118.871C198.077 118.871 189.738 63.9471 230.027 65.4401Z" fill="#263238"/>
<path d="M238.891 124.776C233.44 130.982 223.097 125.952 223.097 125.952C223.097 125.952 239.007 123.176 238.891 124.776Z" fill="white"/>
<path d="M214.38 125.349C214.38 125.349 202.886 121.394 203.045 122.922C204.036 127.721 214.38 125.349 214.38 125.349Z" fill="white"/>
<path d="M216.463 113.838C216.475 61.962 233.015 65.626 233.015 65.626C233.015 65.626 228.483 50.396 221.191 58.474C210.119 70.74 216.1 111.437 216.463 113.838Z" fill="white"/>
<path d="M216.462 114.338C216.342 114.338 216.227 114.295 216.136 114.217C216.046 114.139 215.986 114.031 215.968 113.913C214.825 105.944 214.181 97.9113 214.038 89.862C213.832 74.026 216.113 63.352 220.82 58.139C222.644 56.118 224.497 55.309 226.312 55.714C230.843 56.739 233.387 65.127 233.494 65.484C233.519 65.5675 233.522 65.6561 233.502 65.741C233.482 65.8259 233.44 65.9041 233.381 65.9679C233.321 66.0317 233.246 66.0788 233.163 66.1046C233.08 66.1304 232.991 66.134 232.906 66.115C232.811 66.094 230.47 65.638 227.571 67.992C222.735 71.919 216.971 83.059 216.962 113.838C216.962 113.964 216.915 114.086 216.829 114.179C216.743 114.272 216.625 114.329 216.499 114.338H216.462ZM225.406 56.613C224.17 56.613 222.88 57.349 221.562 58.813C213.249 68.022 214.762 93.958 216.077 106.649C216.932 80.795 222.377 70.885 226.995 67.175C228.472 65.8873 230.346 65.1459 232.304 65.075C231.604 63.075 229.36 57.433 226.092 56.695C225.867 56.6425 225.638 56.615 225.407 56.613H225.406Z" fill="#263238"/>
<path d="M257.732 98.507C252.413 100.437 254.411 109.866 254.411 109.866C255.063 105.961 256.178 102.148 257.732 98.507Z" fill="white"/>
</g>
<defs>
<clipPath id="clip0_315_0">
<rect width="392.124" height="369.663" fill="white"/>
</clipPath>
</defs>
</svg>
