<svg width="400" height="357" viewBox="0 0 400 357" fill="none" xmlns="http://www.w3.org/2000/svg">
<path d="M340.681 109.843C320.024 61.4848 304.982 24.6674 258.583 9.92866C224.338 -0.949145 187.36 6.55798 158.415 28.7142C113.02 63.4568 103.134 110.839 53.456 140.953C11.9831 166.09 -9.73043 206.693 4.22039 264.081C18.1712 321.469 65.0775 357.962 115.685 350.794C243.228 332.727 270.395 353.219 298.376 356.169C317.852 358.223 362.531 349.695 383.925 313.546C404.507 278.777 402.539 257.331 393.458 222.551C387.861 201.11 363.098 162.321 340.681 109.843Z" fill="#E6DCFF"/>
<path opacity="0.1" d="M329.161 313.934C329.161 320.621 314.197 331.093 290.238 328.676C268.176 326.45 238.487 311.562 205.834 311.562C173.13 311.562 143.398 326.461 121.325 328.687C97.4221 331.097 82.5063 320.609 82.5063 313.935C82.5063 301.091 137.725 290.678 205.834 290.678C273.943 290.678 329.161 301.089 329.161 313.934Z" fill="#7400E5"/>
<path d="M321.388 189.484C317.789 187.685 314.59 188.285 304.594 188.285C295.299 188.285 269.595 196.06 263.614 196.51C263.28 196.551 262.941 196.542 262.61 196.483C259.611 195.682 250.862 193.11 250.862 193.11C211.647 164.892 201.833 201.88 201.833 201.88L206.011 241.829L183.452 248.332C183.452 248.332 187.26 267.568 187.486 268.441C187.486 268.441 273.821 244.871 287.514 241.269C293.54 239.002 297.006 237.703 300.992 234.87C305.961 231.341 331.182 213.678 331.781 209.479C332.38 205.281 324.986 191.288 321.388 189.484Z" fill="#263238"/>
<path d="M241.612 250.601L220.33 244.587C215.676 242.374 212.097 240.603 212.097 240.603L214.642 201.884C214.642 201.884 209.864 170.521 166.925 189.688C166.925 189.688 163.937 191.472 160.728 193.222C158.54 194.507 156.244 195.598 153.867 196.486C150.868 197.285 121.879 188.288 111.883 188.288C101.887 188.288 98.6881 187.688 95.0894 189.488C91.4908 191.287 84.0943 205.282 84.6875 209.48C85.2806 213.679 110.878 230.873 115.477 234.871C119.077 237.774 123.27 239.851 127.76 240.957L222.395 265.478L241.612 250.601Z" fill="#263238"/>
<path d="M291.61 272.055C287.412 276.053 277.015 274.454 271.818 273.455C266.62 272.456 241.229 271.656 238.03 270.655C234.831 269.655 228.833 268.256 224.635 265.454C223.919 265.059 223.168 264.729 222.392 264.469C222.392 264.469 226.368 259.1 228.115 257.754C230.469 255.941 238.826 252.61 238.826 252.61C239.583 252.939 240.405 253.092 241.229 253.059C243.628 252.259 248.627 253.659 252.425 254.055C256.223 254.451 277.415 255.051 283.214 257.254C289.012 259.458 295.809 268.056 291.61 272.055Z" fill="white"/>
<path d="M282.317 275.175C278.754 275.112 275.203 274.719 271.713 273.998C269.254 273.525 262.028 273.086 255.04 272.661C247.097 272.178 239.594 271.722 237.864 271.183C237.311 271.008 236.661 270.822 235.957 270.618C232.539 269.627 227.86 268.272 224.327 265.917C223.648 265.541 222.935 265.231 222.197 264.989C222.117 264.96 222.044 264.911 221.986 264.848C221.927 264.786 221.884 264.71 221.859 264.628C221.835 264.545 221.83 264.459 221.845 264.374C221.86 264.289 221.895 264.21 221.946 264.141C222.109 263.919 225.987 258.693 227.777 257.316C230.164 255.477 238.276 252.234 238.621 252.097C238.741 252.048 238.874 252.044 238.996 252.084C239.644 252.377 240.347 252.53 241.058 252.534C242.837 251.939 245.706 252.429 248.732 252.945C250.003 253.167 251.317 253.388 252.485 253.51C253.382 253.604 255.304 253.712 257.739 253.849C265.662 254.292 278.923 255.039 283.412 256.741C287.868 258.431 292.502 263.498 293.328 267.585C293.556 268.443 293.552 269.345 293.318 270.2C293.084 271.055 292.627 271.833 291.994 272.455C290.09 274.267 286.851 275.175 282.317 275.175ZM223.275 264.219C223.853 264.426 224.412 264.685 224.943 264.994C228.332 267.254 232.918 268.583 236.265 269.552C236.979 269.759 237.63 269.947 238.195 270.124C239.795 270.624 247.578 271.097 255.106 271.555C262.13 271.981 269.392 272.422 271.926 272.909C281.857 274.817 288.354 274.395 291.233 271.652C291.73 271.16 292.086 270.543 292.264 269.866C292.442 269.189 292.436 268.477 292.246 267.804C291.484 264.041 287.173 259.349 283.02 257.776C278.693 256.134 265.536 255.395 257.679 254.953C255.23 254.815 253.296 254.706 252.367 254.608C251.167 254.482 249.834 254.255 248.546 254.035C245.78 253.563 242.921 253.077 241.405 253.584C241.088 253.689 240.532 253.725 238.848 253.196C237.616 253.694 230.529 256.59 228.452 258.192C226.558 260.048 224.826 262.062 223.275 264.213V264.219Z" fill="#263238"/>
<path d="M179.985 230.51C179.985 230.51 152.062 213.961 139.459 209.987C128.215 206.446 124.139 204.344 124.139 204.344C133.473 206.205 142.528 209.263 151.079 213.443C160.108 218.1 179.985 230.51 179.985 230.51Z" fill="white"/>
<path d="M204.79 242.177C204.79 242.177 253.358 216.674 273.187 211.143C284.542 207.974 288.914 204.345 288.914 204.345C288.914 204.345 252.535 216.628 232.619 226.809C223.574 231.437 204.79 242.177 204.79 242.177Z" fill="white"/>
<path d="M187.045 267.892C183.836 269.171 180.537 269.994 178.44 270.658C175.241 271.654 149.85 272.458 144.653 273.458C139.455 274.458 129.059 276.056 124.86 272.058C120.662 268.06 127.459 259.463 133.257 257.263C139.054 255.063 160.247 254.465 164.046 254.064C167.845 253.663 172.842 252.265 175.242 253.068C175.999 253.319 179.35 252.337 183.58 250.875C183.637 251.997 187.035 254.989 187.785 258.499C188.266 261.645 188.012 264.86 187.045 267.892Z" fill="white"/>
<path d="M134.153 275.175C129.616 275.175 126.382 274.267 124.478 272.456C123.846 271.834 123.389 271.057 123.154 270.201C122.92 269.346 122.916 268.444 123.144 267.587C123.969 263.5 128.604 258.433 133.061 256.742C137.549 255.04 150.81 254.295 158.734 253.851C161.169 253.713 163.092 253.605 163.988 253.511C165.156 253.388 166.468 253.165 167.74 252.947C170.77 252.43 173.633 251.942 175.418 252.536C175.626 252.595 176.827 252.616 183.401 250.346C183.482 250.318 183.569 250.309 183.654 250.321C183.739 250.332 183.82 250.363 183.891 250.411C183.962 250.459 184.021 250.522 184.063 250.597C184.105 250.672 184.129 250.755 184.134 250.841C184.426 251.494 184.811 252.102 185.277 252.646C186.68 254.324 187.717 256.277 188.323 258.379C188.834 261.623 188.576 264.942 187.571 268.069C187.545 268.145 187.504 268.215 187.449 268.274C187.394 268.332 187.327 268.378 187.252 268.408C184.882 269.353 182.466 270.052 180.524 270.621C179.815 270.827 179.167 271.014 178.607 271.19C176.879 271.729 169.376 272.186 161.432 272.668C154.444 273.093 147.217 273.531 144.759 274.005C141.268 274.723 137.717 275.115 134.153 275.175ZM173.37 253.375C171.54 253.457 169.719 253.679 167.923 254.039C166.636 254.26 165.304 254.481 164.103 254.612C163.178 254.709 161.244 254.819 158.792 254.956C150.935 255.399 137.777 256.137 133.451 257.779C129.296 259.355 124.986 264.04 124.225 267.808C124.034 268.481 124.028 269.193 124.206 269.87C124.384 270.547 124.74 271.163 125.237 271.656C128.115 274.399 134.616 274.821 144.544 272.913C147.074 272.427 154.338 271.984 161.364 271.558C168.889 271.1 176.676 270.628 178.275 270.127C178.843 269.95 179.493 269.761 180.215 269.552C182.067 269.016 184.354 268.354 186.597 267.476C187.477 264.606 187.697 261.575 187.24 258.608C186.66 256.663 185.689 254.858 184.386 253.303C183.954 252.759 183.567 252.181 183.228 251.574C177.074 253.677 175.638 253.774 175.068 253.586C174.517 253.426 173.944 253.352 173.37 253.368V253.375Z" fill="#263238"/>
<path d="M155.47 195.877C158.431 196.085 183.688 205.014 188.438 207.786C181.223 204.017 153.861 196.483 153.861 196.483C155.225 196.118 152.794 197.339 155.47 195.877Z" fill="white"/>
<path d="M189.449 208.376L188.443 207.786C188.789 207.963 189.125 208.16 189.449 208.376Z" fill="#535353"/>
<path d="M263.615 196.512C263.615 196.512 229.147 204.875 222.839 208.376C223.126 208.168 251.137 197.717 260.524 195.906C260.524 195.906 259.611 195.685 262.609 196.482C262.94 196.542 263.278 196.551 263.613 196.51L263.615 196.512Z" fill="white"/>
<path d="M167.194 153.362C168.734 133.757 171.603 111.402 159.448 96.0989C158.277 96.5758 151.317 95.1273 150.665 95.4527C147.49 97.1483 144.813 99.6427 142.897 102.69C140.981 105.736 139.892 109.23 139.739 112.826C139.558 117.818 135.866 120.669 129.042 127.635C121.712 135.118 118.907 149.687 113.079 152.761C106.899 156.022 76.5873 188.74 74.4593 190.34C72.3313 191.94 79.3283 197.951 79.3283 197.951C79.3283 197.951 117.216 174.753 123.481 171.421C129.747 168.089 134.943 161.759 136.676 159.093C137.696 157.525 146.359 154.122 153.569 148.569C158.616 144.682 163.105 137.874 163.105 137.874C163.68 143.246 164.877 148.534 166.671 153.631C166.838 153.54 167.017 153.454 167.194 153.362Z" fill="white"/>
<path d="M79.3194 198.507C79.187 198.507 79.059 198.46 78.9586 198.374C78.3909 197.887 73.4146 193.541 73.4954 191.12C73.4983 190.883 73.5561 190.649 73.6644 190.438C73.7727 190.227 73.9285 190.044 74.1195 189.903C74.7359 189.441 78.1198 185.942 82.4045 181.511C92.7744 170.788 108.447 154.583 112.817 152.277C115.671 150.772 117.893 146.069 120.244 141.09C122.494 136.331 125.044 130.929 128.644 127.257C129.659 126.22 130.607 125.273 131.482 124.398C136.511 119.371 139.036 116.848 139.182 112.815C139.336 109.119 140.453 105.527 142.423 102.395C144.393 99.2635 147.148 96.7013 150.414 94.9625C150.805 94.7688 151.55 94.8352 154.302 95.2048C155.928 95.5105 157.582 95.6404 159.235 95.5921C159.346 95.547 159.468 95.539 159.584 95.5693C159.7 95.5997 159.803 95.6667 159.877 95.7603C171.309 110.146 169.596 130.901 168.086 149.209C167.969 150.622 167.855 152.023 167.744 153.414C167.736 153.506 167.705 153.595 167.653 153.673C167.602 153.75 167.532 153.813 167.45 153.856L166.918 154.129C166.848 154.166 166.77 154.187 166.69 154.192C166.611 154.196 166.531 154.183 166.457 154.154C166.383 154.125 166.316 154.08 166.26 154.022C166.205 153.964 166.163 153.895 166.137 153.82C164.52 149.142 163.37 144.316 162.707 139.411C160.211 142.992 157.247 146.223 153.894 149.016C150.112 151.8 146.116 154.279 141.943 156.43C139.561 157.721 137.504 158.836 137.132 159.407C135.643 161.698 130.332 168.413 123.734 171.923C117.555 175.21 79.9888 198.204 79.6093 198.437C79.521 198.486 79.4207 198.511 79.3194 198.507ZM151.05 95.954C150.984 95.9522 150.919 95.957 150.854 95.9684C147.777 97.6207 145.184 100.047 143.331 103.007C141.477 105.968 140.428 109.361 140.287 112.851C140.124 117.317 137.332 120.109 132.263 125.175C131.39 126.048 130.445 126.992 129.433 128.025C125.962 131.566 123.457 136.878 121.244 141.559C118.705 146.934 116.513 151.576 113.333 153.253C109.118 155.478 92.8928 172.254 83.1991 182.278C78.1187 187.53 75.4374 190.293 74.7823 190.786C74.7237 190.828 74.6764 190.883 74.6447 190.948C74.613 191.013 74.5979 191.084 74.6008 191.156C74.5555 192.514 77.3884 195.511 79.3758 197.269C83.2035 194.928 117.325 174.066 123.212 170.932C129.603 167.533 134.757 161.015 136.203 158.791C136.704 158.016 138.334 157.112 141.412 155.443C145.536 153.321 149.484 150.876 153.221 148.13C158.134 144.346 162.588 137.636 162.634 137.569C162.697 137.473 162.789 137.399 162.897 137.358C163.004 137.317 163.122 137.31 163.233 137.339C163.345 137.368 163.444 137.431 163.518 137.519C163.592 137.607 163.637 137.716 163.646 137.831C164.17 142.688 165.206 147.476 166.737 152.116C166.817 151.119 166.899 150.117 166.984 149.108C168.468 131.12 170.15 110.75 159.224 96.7098C157.525 96.7415 155.826 96.6014 154.155 96.2915C153.006 96.141 151.614 95.954 151.05 95.954Z" fill="#263238"/>
<path d="M39.1888 217.404C39.3061 219.629 45.1644 216.584 45.9832 216.818C45.9832 216.818 44.5568 219.268 48.2307 218.596C50.3045 218.22 52.3172 217.563 54.213 216.642C54.213 216.642 53.9042 219.645 58.3771 217.446C62.8499 215.247 73.0593 206.275 73.98 204.343C74.9007 202.411 106.05 184.179 106.536 182.499C107.022 180.818 96.0234 166.737 96.0234 166.737C95.9227 166.737 73.8096 190.342 71.4028 190.342C67.8882 190.342 60.5073 187.881 58.0473 188.819C55.5874 189.758 51.3701 193.037 50.6674 194.677C49.9648 196.317 44.9264 204.048 45.981 205.22C47.0356 206.392 48.3237 206.626 48.2064 207.212C48.0891 207.799 39.0715 215.18 39.1888 217.404ZM54.0669 196.844C55.3561 195.556 60.1532 194.326 60.6854 195.204C61.2177 196.083 57.2295 199.598 55.7655 200.827C54.3015 202.056 52.3683 203.17 52.251 202.584C52.1337 201.999 54.0669 196.845 54.0669 196.845V196.844Z" fill="white"/>
<path d="M47.1131 219.265C46.7944 219.302 46.4715 219.26 46.1733 219.141C45.8751 219.023 45.6109 218.832 45.4045 218.587C45.195 218.273 45.1119 217.892 45.1722 217.52C44.8623 217.616 44.4916 217.741 44.1618 217.852C41.9254 218.605 40.1394 219.13 39.1999 218.488C39.0284 218.371 38.8876 218.214 38.7896 218.03C38.6916 217.847 38.6391 217.643 38.6366 217.435C38.5492 215.775 41.7749 212.621 45.679 208.969C46.4602 208.239 47.2647 207.486 47.5845 207.138C47.4739 207.052 47.2935 206.939 47.153 206.85C46.5681 206.508 46.0355 206.084 45.5716 205.591C44.6864 204.609 45.9379 201.971 48.8914 196.791C49.4779 195.761 49.9847 194.871 50.1607 194.461C50.9585 192.599 55.3617 189.26 57.8537 188.306C59.4505 187.695 62.5457 188.306 65.8212 188.961C67.6566 189.39 69.5242 189.668 71.4051 189.792C72.3224 189.665 76.9801 185.808 93.8766 168.167C95.7722 166.187 95.7722 166.187 96.0245 166.187C96.1086 166.187 96.1915 166.206 96.267 166.243C96.3426 166.28 96.4088 166.334 96.4605 166.4C99.8201 170.7 107.578 180.896 107.069 182.653C106.809 183.555 102.933 186.113 90.6155 193.861C83.6805 198.223 75.0513 203.652 74.4758 204.595C73.4445 206.756 63.0115 215.787 58.6217 217.944C56.6918 218.894 55.3285 219.061 54.4554 218.453C54.1197 218.213 53.8748 217.867 53.7604 217.471C52.0209 218.236 50.1988 218.796 48.3304 219.142C47.9291 219.219 47.5217 219.261 47.1131 219.265ZM45.8704 216.253C45.9601 216.252 46.0495 216.263 46.136 216.287C46.2169 216.31 46.2914 216.352 46.3539 216.408C46.4164 216.465 46.4652 216.535 46.4965 216.613C46.5279 216.691 46.5411 216.775 46.535 216.859C46.5289 216.943 46.5037 217.024 46.4613 217.097C46.3241 217.337 46.1913 217.781 46.3108 217.95C46.4304 218.12 46.9859 218.26 48.1312 218.05C50.1493 217.682 52.1086 217.043 53.9563 216.152C54.0448 216.106 54.1441 216.084 54.2438 216.09C54.3434 216.096 54.4397 216.128 54.5224 216.184C54.6051 216.24 54.6711 216.317 54.7135 216.408C54.7558 216.498 54.7729 216.598 54.763 216.698C54.7495 216.855 54.7725 217.013 54.8301 217.16C54.8876 217.307 54.9783 217.439 55.095 217.545C55.3274 217.704 56.0854 217.957 58.1359 216.949C62.5789 214.764 72.619 205.921 73.4854 204.105C73.9624 203.109 79.1423 199.77 90.029 192.923C96.9032 188.598 105.458 183.217 106.033 182.287C106.066 181.251 101.021 174.066 95.9781 167.575C95.666 167.898 95.2034 168.381 94.6778 168.93C76.1413 188.287 72.5128 190.897 71.4084 190.897C69.4547 190.779 67.5148 190.493 65.6098 190.044C62.7692 189.482 59.5523 188.846 58.251 189.337C55.895 190.236 51.7984 193.456 51.1821 194.896C50.9807 195.364 50.4838 196.235 49.8542 197.338C48.8095 199.171 46.0342 204.042 46.4127 204.87C46.8067 205.278 47.2554 205.629 47.7461 205.913C48.3094 206.267 48.8925 206.634 48.7542 207.32C48.69 207.639 48.4532 207.893 46.4381 209.776C44.423 211.659 39.6768 216.099 39.7432 217.375C39.751 217.523 39.7963 217.553 39.824 217.572C40.3773 217.957 42.6126 217.205 43.8077 216.797C44.4683 216.526 45.1619 216.343 45.8704 216.253ZM52.4735 203.294C52.3773 203.295 52.2816 203.28 52.1902 203.25C52.068 203.209 51.9589 203.136 51.8741 203.039C51.7893 202.942 51.7319 202.824 51.7077 202.697C51.586 202.084 52.6417 199.073 53.5491 196.653C53.5764 196.579 53.6194 196.512 53.6752 196.456C55.5548 195.091 57.8225 194.364 60.1455 194.382C60.3449 194.387 60.5403 194.439 60.7164 194.533C60.8925 194.626 61.0444 194.76 61.1602 194.922C61.3893 195.305 61.9968 196.32 56.1208 201.254C55.8552 201.477 53.6509 203.294 52.4735 203.294ZM54.5406 197.157C53.8346 199.048 53.1197 201.133 52.8807 202.075C53.7917 201.628 54.6415 201.067 55.4093 200.403C58.2034 198.056 59.9529 196.133 60.1587 195.494C58.1612 195.465 56.202 196.044 54.5406 197.153V197.157Z" fill="#263238"/>
<path d="M238.63 152.853C236.563 133.298 233.097 111.024 244.835 95.4024C246.018 95.845 252.936 94.2117 253.597 94.5171C256.817 96.1269 259.561 98.5488 261.558 101.544C263.556 104.539 264.738 108.003 264.987 111.594C265.303 116.574 269.07 119.329 276.079 126.109C283.604 133.393 286.804 147.88 292.714 150.796C298.979 153.895 330.162 185.779 332.336 187.32C334.511 188.862 327.674 195.06 327.674 195.06C327.674 195.06 289.175 172.89 282.823 169.729C276.471 166.567 271.104 160.378 269.3 157.76C268.239 156.22 259.488 153.051 252.13 147.69C246.98 143.94 242.309 137.255 242.309 137.255C241.879 142.641 240.826 147.959 239.17 153.102C238.991 153.023 238.809 152.941 238.63 152.853Z" fill="white"/>
<path d="M327.673 195.618C327.576 195.619 327.481 195.593 327.398 195.545C327.011 195.324 288.839 173.347 282.581 170.228C275.89 166.898 270.4 160.329 268.849 158.079C268.462 157.517 266.377 156.457 263.961 155.232C259.73 153.197 255.667 150.828 251.811 148.15C248.383 145.448 245.334 142.298 242.743 138.786C242.213 143.707 241.194 148.563 239.703 153.282C239.68 153.359 239.64 153.429 239.586 153.489C239.532 153.548 239.466 153.595 239.393 153.627C239.319 153.659 239.239 153.674 239.159 153.672C239.079 153.669 239.001 153.65 238.929 153.614L238.391 153.358C238.307 153.317 238.234 153.254 238.181 153.177C238.127 153.099 238.095 153.009 238.086 152.916C237.938 151.533 237.787 150.137 237.632 148.73C235.627 130.471 233.356 109.768 244.398 95.0742C244.47 94.9788 244.57 94.9093 244.685 94.876C244.8 94.8427 244.922 94.8474 245.034 94.8894C246.687 94.8884 248.335 94.7141 249.952 94.3693C252.699 93.9267 253.442 93.8403 253.835 94.0229C257.146 95.6732 259.968 98.1603 262.022 101.238C264.076 104.315 265.29 107.876 265.543 111.567C265.799 115.594 268.391 118.048 273.555 122.939C274.454 123.79 275.424 124.71 276.468 125.719C280.166 129.297 282.859 134.625 285.236 139.325C287.721 144.238 290.068 148.88 292.962 150.309C297.388 152.496 313.497 168.273 324.153 178.714C328.555 183.03 332.031 186.433 332.661 186.878C332.856 187.014 333.017 187.194 333.131 187.402C333.245 187.611 333.309 187.843 333.318 188.081C333.463 190.499 328.605 194.976 328.05 195.48C327.946 195.572 327.812 195.621 327.673 195.618ZM242.308 136.711C242.397 136.711 242.485 136.732 242.564 136.774C242.643 136.815 242.711 136.875 242.762 136.948C242.807 137.014 247.442 143.602 252.455 147.252C256.264 149.896 260.277 152.234 264.456 154.245C267.578 155.831 269.233 156.693 269.755 157.454C271.26 159.638 276.588 166.015 283.067 169.241C289.038 172.213 323.708 192.148 327.597 194.386C329.537 192.572 332.288 189.5 332.207 188.145C332.207 188.073 332.189 188.003 332.156 187.939C332.122 187.875 332.074 187.821 332.014 187.78C331.35 187.305 328.59 184.615 323.372 179.503C313.412 169.744 296.739 153.409 292.465 151.3C289.241 149.709 286.924 145.128 284.242 139.824C281.904 135.201 279.255 129.963 275.691 126.515C274.652 125.509 273.684 124.591 272.786 123.748C267.585 118.819 264.715 116.104 264.431 111.642C264.193 108.149 263.046 104.778 261.104 101.865C259.162 98.9511 256.492 96.5958 253.359 95.0321C252.272 95.1165 251.19 95.2624 250.12 95.4692C248.458 95.82 246.765 96.0053 245.067 96.0225C234.523 110.351 236.753 130.672 238.724 148.613C238.834 149.617 238.943 150.616 239.051 151.608C240.456 146.929 241.362 142.115 241.754 137.245C241.76 137.13 241.801 137.02 241.872 136.929C241.944 136.839 242.042 136.773 242.152 136.741C242.203 136.723 242.256 136.713 242.309 136.71L242.308 136.711Z" fill="#263238"/>
<path d="M359.022 203.482C358.889 202.9 360.172 202.631 361.193 201.431C362.214 200.232 356.971 192.638 356.224 191.018C355.477 189.398 351.174 186.232 348.688 185.362C346.203 184.492 338.893 187.149 335.379 187.243C332.974 187.309 310.233 164.307 310.133 164.309C310.133 164.309 299.518 178.681 300.048 180.347C300.578 182.014 332.206 199.399 333.181 201.306C334.156 203.213 344.591 211.902 349.132 213.984C353.674 216.067 353.273 213.069 353.273 213.069C355.195 213.938 357.226 214.54 359.311 214.859C363.001 215.432 361.509 213.022 361.509 213.022C362.323 212.765 368.26 215.653 368.317 213.424C368.375 211.196 359.155 204.064 359.022 203.482ZM354.858 198.965C354.756 199.553 352.794 198.492 351.297 197.305C349.799 196.117 345.724 192.709 346.226 191.816C346.729 190.923 351.564 192.024 352.887 193.277C352.892 193.28 354.958 198.376 354.857 198.965H354.858Z" fill="white"/>
<path d="M360.313 215.503C359.948 215.499 359.584 215.468 359.223 215.409C357.346 215.114 355.51 214.602 353.751 213.885C353.646 214.282 353.41 214.633 353.082 214.881C352.228 215.51 350.86 215.383 348.905 214.485C344.458 212.446 333.785 203.7 332.69 201.555C332.096 200.64 323.32 195.445 316.269 191.264C303.752 183.85 299.809 181.402 299.524 180.508C298.97 178.759 306.449 168.361 309.691 163.973C309.741 163.906 309.805 163.852 309.879 163.814C309.953 163.775 310.035 163.754 310.118 163.752C310.372 163.752 310.366 163.735 312.331 165.681C329.69 182.856 334.447 186.583 335.382 186.685C337.254 186.508 339.108 186.18 340.927 185.703C344.187 184.964 347.266 184.265 348.875 184.833C351.395 185.719 355.884 188.941 356.732 190.78C356.919 191.186 357.452 192.065 358.069 193.083C361.156 198.173 362.475 200.779 361.62 201.784C361.168 202.289 360.647 202.727 360.071 203.084C359.931 203.177 359.758 203.292 359.647 203.383C359.979 203.725 360.798 204.453 361.597 205.16C365.6 208.707 368.911 211.778 368.869 213.437C368.873 213.645 368.826 213.85 368.733 214.036C368.64 214.222 368.503 214.383 368.335 214.506C367.41 215.17 365.612 214.695 363.355 214.002C363.023 213.901 362.654 213.789 362.337 213.701C362.406 214.071 362.333 214.454 362.132 214.772C361.916 215.039 361.636 215.245 361.317 215.373C360.999 215.501 360.653 215.546 360.313 215.503ZM353.279 212.515C353.362 212.515 353.445 212.534 353.52 212.57C355.39 213.413 357.366 213.999 359.394 214.312C360.543 214.491 361.09 214.343 361.211 214.163C361.331 213.982 361.181 213.548 361.037 213.31C360.993 213.239 360.966 213.158 360.958 213.075C360.95 212.991 360.961 212.907 360.99 212.828C361.019 212.749 361.066 212.678 361.127 212.62C361.188 212.562 361.261 212.519 361.341 212.494C361.746 212.365 362.352 212.539 363.679 212.946C364.888 213.317 367.136 214.008 367.688 213.61C367.713 213.59 367.758 213.558 367.762 213.411C367.795 212.133 362.937 207.83 360.862 205.991C358.787 204.153 358.557 203.92 358.484 203.603C358.328 202.922 358.901 202.539 359.456 202.165C359.945 201.864 360.389 201.494 360.774 201.068C361.115 200.252 358.212 195.461 357.122 193.654C356.458 192.565 355.941 191.703 355.726 191.239C355.07 189.818 350.889 186.708 348.51 185.874C347.199 185.417 343.997 186.139 341.171 186.779C339.279 187.278 337.348 187.615 335.398 187.787H335.378C334.251 187.787 330.488 185.197 311.552 166.462C311.009 165.923 310.531 165.45 310.209 165.134C305.34 171.759 300.494 179.077 300.582 180.2C301.148 181.025 309.843 186.176 316.829 190.31C327.894 196.864 333.171 200.061 333.673 201.044C334.588 202.837 344.864 211.408 349.363 213.471C351.447 214.426 352.193 214.148 352.42 213.986C352.533 213.875 352.62 213.74 352.673 213.591C352.726 213.442 352.744 213.283 352.725 213.126C352.716 213.048 352.723 212.968 352.747 212.893C352.77 212.819 352.81 212.749 352.862 212.691C352.914 212.632 352.978 212.585 353.05 212.553C353.122 212.522 353.2 212.505 353.279 212.506V212.515ZM354.622 199.678C353.436 199.678 351.225 197.95 350.954 197.735C344.946 192.959 345.531 191.929 345.746 191.538C345.857 191.373 346.004 191.236 346.177 191.137C346.35 191.039 346.543 190.982 346.742 190.971C349.064 190.887 351.351 191.553 353.265 192.869C353.322 192.924 353.367 192.99 353.397 193.063C354.811 196.544 355.486 198.561 355.402 199.054C355.382 199.182 355.327 199.302 355.245 199.402C355.162 199.502 355.055 199.579 354.933 199.623C354.833 199.661 354.727 199.68 354.621 199.679L354.622 199.678ZM346.761 192.089C346.974 192.709 348.681 194.513 351.643 196.868C352.428 197.51 353.292 198.049 354.214 198.471C353.951 197.535 353.179 195.469 352.423 193.602C350.732 192.535 348.756 192.008 346.759 192.09L346.761 192.089Z" fill="#263238"/>
<path d="M216.245 71.3203C211.917 69.2643 207.405 67.6211 202.769 66.4126C198.132 67.6211 193.62 69.2643 189.293 71.3203C189.293 71.3203 190.952 86.6212 184.756 87.6769C184.756 87.6769 184.645 117.474 202.77 119.86C220.897 117.474 220.784 87.6769 220.784 87.6769C214.586 86.6223 216.245 71.3203 216.245 71.3203Z" fill="#263238"/>
<path d="M247.068 112.426C249.281 107.308 251.113 99.7252 255.01 94.979C249.579 92.2968 243.828 90.317 237.897 89.0875L237.906 89.1727C229.164 87.2583 221.884 87.11 220.422 87.66C220.237 87.7335 220.061 87.8266 219.896 87.9377C214.882 91.1143 209.068 92.8009 203.132 92.8009C197.195 92.8009 191.381 91.1143 186.367 87.9377C186.202 87.8265 186.026 87.7334 185.841 87.66C183.584 86.8134 167.506 87.598 153.567 94.0096C163.109 107.716 164.776 123.05 163.332 139.629C163.302 139.809 163.25 139.985 163.178 140.153C163.612 149.638 167.109 164.74 169.897 172.641C171.606 176.884 172.633 181.37 172.94 185.933C182.882 187.933 192.992 188.97 203.133 189.032C213.307 188.913 223.395 187.138 232.999 183.775C233.826 176.381 234.519 177.066 236.509 172.364C241.483 160.61 243.02 146.791 243.169 137.608C242.772 128.987 243.584 120.485 247.068 112.426Z" fill="white"/>
<path d="M203.126 189.585C192.946 189.515 182.796 188.473 172.814 186.473C172.701 186.449 172.599 186.389 172.521 186.303C172.444 186.217 172.396 186.109 172.383 185.994C171.619 179.166 171.094 177.688 169.691 173.739L169.367 172.824C166.45 164.56 163.042 149.475 162.617 140.179C162.614 140.114 162.622 140.048 162.641 139.985L162.703 139.813C162.736 139.739 162.759 139.662 162.772 139.583C164.452 120.299 161.469 106.343 153.105 94.323C153.058 94.2567 153.027 94.1811 153.013 94.1014C152.999 94.0217 153.003 93.94 153.024 93.8619C153.045 93.7839 153.083 93.7114 153.135 93.6496C153.188 93.5877 153.253 93.5381 153.326 93.5041C166.867 87.2729 183.349 86.1309 186.026 87.139C186.249 87.2258 186.461 87.3372 186.659 87.471C191.591 90.5724 197.298 92.2178 203.124 92.2178C208.95 92.2178 214.657 90.5724 219.589 87.471C219.788 87.3379 220 87.2266 220.223 87.139C221.899 86.5116 229.35 86.7595 237.757 88.5721C237.837 88.5386 237.925 88.5293 238.01 88.5455C243.988 89.7858 249.784 91.7815 255.258 94.4846C255.331 94.5221 255.396 94.5757 255.446 94.6414C255.497 94.7071 255.532 94.7833 255.549 94.8643C255.566 94.9453 255.564 95.0291 255.544 95.1096C255.525 95.19 255.487 95.2649 255.435 95.3289C252.735 98.6199 251.008 103.415 249.482 107.644C248.835 109.44 248.224 111.138 247.572 112.645C244.492 119.775 243.264 127.695 243.711 137.582C243.614 143.596 242.766 158.972 237.008 172.579C236.475 173.837 236.042 174.698 235.66 175.456C234.645 177.477 234.135 178.492 233.537 183.833C233.526 183.934 233.487 184.03 233.425 184.11C233.363 184.19 233.28 184.252 233.186 184.288C223.516 187.661 213.366 189.449 203.126 189.585ZM173.438 185.474C183.219 187.399 193.158 188.405 203.126 188.479C213.119 188.345 223.028 186.622 232.48 183.374C233.085 178.128 233.656 176.991 234.674 174.964C235.048 174.219 235.473 173.375 235.99 172.149C241.673 158.721 242.512 143.514 242.607 137.6C242.152 127.576 243.408 119.498 246.558 112.208C247.195 110.733 247.801 109.051 248.439 107.271C249.913 103.177 251.574 98.569 254.149 95.1707C249.03 92.7123 243.635 90.8745 238.08 89.6964C237.984 89.7298 237.88 89.7359 237.78 89.7141C228.967 87.7831 221.916 87.689 220.606 88.1781C220.459 88.2373 220.319 88.3114 220.188 88.3994C215.075 91.6144 209.158 93.3201 203.118 93.3201C197.078 93.3201 191.161 91.6144 186.048 88.3994C185.918 88.311 185.778 88.2368 185.632 88.1781C183.529 87.388 168.148 88.0885 154.382 94.2411C162.619 106.359 165.546 120.408 163.867 139.677C163.849 139.858 163.803 140.035 163.732 140.202L163.72 140.237C164.163 149.439 167.525 164.3 170.404 172.457L170.727 173.37C172.232 177.246 173.146 181.327 173.438 185.474Z" fill="#263238"/>
<path d="M236.501 187.609C235.241 185.949 234.114 179.641 234.114 179.641C223.032 181.974 203.572 182.285 203.156 182.297C202.74 182.309 183.279 181.978 172.198 179.641C172.198 179.641 171.071 185.949 169.811 187.609C180.679 190.524 191.868 192.074 203.119 192.224L203.197 192.216C214.446 192.067 225.634 190.519 236.501 187.609Z" fill="#292929"/>
<path d="M223.741 31.6667C218.097 20.3606 205.15 20.3175 202.81 20.365H202.78C200.436 20.3175 187.495 20.365 181.848 31.6667C180.521 34.3303 179.878 40.8514 180.646 49.2239C181.026 53.3736 180.439 58.6543 181.076 61.1175C181.593 63.1161 182.493 66.9825 186.844 74.5328C186.984 74.7497 187.137 74.9585 187.302 75.158C187.354 75.2277 187.397 75.2908 187.452 75.3616C190.36 79.124 196.748 84.8318 202.753 85.2911V85.2999H202.781H202.795H202.81H202.837V85.2911C208.84 84.8318 215.231 79.1229 218.138 75.3616C218.193 75.2908 218.235 75.2277 218.289 75.158C218.453 74.9584 218.606 74.7496 218.747 74.5328C223.098 66.9836 223.996 63.1172 224.513 61.1175C225.151 58.6554 224.563 53.3714 224.944 49.2239C225.711 40.847 225.071 34.3303 223.741 31.6667Z" fill="white"/>
<path d="M202.832 85.8531H202.768C202.701 85.8581 202.635 85.8513 202.571 85.8332C196.012 85.2511 189.536 78.9668 187.013 75.7023L186.725 75.3172C186.593 75.1558 186.472 74.9853 186.363 74.8071C182.138 67.4759 181.138 63.5796 180.6 61.487L180.541 61.2557C180.206 59.2131 180.098 57.1396 180.219 55.0732C180.24 53.1145 180.261 51.0895 180.095 49.2747C179.373 41.4024 179.867 34.3943 181.354 31.4187C186.887 20.3528 199.163 19.7353 202.792 19.8127C206.397 19.7397 218.707 20.3505 224.235 31.4187C225.723 34.3954 226.216 41.4046 225.494 49.2747C225.328 51.0917 225.349 53.1179 225.37 55.0765C225.49 57.1418 225.383 59.2141 225.049 61.2557L224.987 61.4948C224.449 63.5885 223.446 67.4848 219.225 74.8082C219.117 74.9836 218.998 75.1518 218.868 75.3117L218.573 75.7023C216.046 78.969 209.544 85.2766 202.972 85.8299C202.927 85.8436 202.879 85.8514 202.832 85.8531ZM202.329 20.9138C198.319 20.9138 187.359 21.871 182.343 31.9133C181.279 34.0424 180.34 39.8399 181.197 49.1762C181.368 51.0485 181.346 53.1024 181.325 55.0887C181.211 57.0579 181.308 59.0337 181.613 60.9824L181.673 61.2148C182.197 63.2576 183.172 67.0576 187.323 74.2582C187.405 74.391 187.496 74.5178 187.595 74.6378L187.887 75.0229C190.721 78.689 197.027 84.3005 202.794 84.741C208.561 84.2983 214.867 78.689 217.7 75.0262L217.997 74.6334C218.095 74.5154 218.184 74.3907 218.265 74.2604C222.413 67.0676 223.39 63.2653 223.915 61.2237L223.977 60.9835C224.281 59.0358 224.377 57.0612 224.263 55.0931C224.242 53.1013 224.22 51.0519 224.391 49.1773C225.248 39.8465 224.311 34.0491 223.246 31.9144C218.006 21.425 206.26 20.8485 202.822 20.9193C202.671 20.916 202.506 20.9138 202.329 20.9138Z" fill="#263238"/>
<path d="M193.365 69.7955C192.694 64.06 186.947 62.7697 182.904 60.0574C182.173 59.5672 181.474 59.0349 180.787 58.4883C180.794 59.3716 180.891 60.2518 181.077 61.1153C181.594 63.1138 182.494 66.9803 186.845 74.5306C186.986 74.7475 187.139 74.9563 187.303 75.1558C187.355 75.2255 187.398 75.2886 187.454 75.3594C190.22 78.8592 193.701 81.7283 197.664 83.775C195.203 79.6331 194.039 75.5608 193.365 69.7955Z" fill="#263238"/>
<path d="M212.254 69.7955C212.925 64.06 218.673 62.7697 222.715 60.0574C223.446 59.5672 224.146 59.0349 224.832 58.4883C224.825 59.3716 224.728 60.2519 224.542 61.1153C224.024 63.1138 223.125 66.9803 218.774 74.5306C218.634 74.7475 218.481 74.9563 218.316 75.1558C218.263 75.2255 218.221 75.2886 218.166 75.3594C215.399 78.8593 211.918 81.7284 207.954 83.775C210.412 79.6331 211.58 75.5608 212.254 69.7955Z" fill="#263238"/>
<path d="M204.334 55.0941C204.334 55.0941 208.449 42.5531 221.33 46.144C221.328 46.144 220.433 65.1032 204.334 55.0941Z" fill="white"/>
<path d="M212.568 58.5645C210.109 58.5645 207.256 57.563 204.047 55.5634C203.941 55.4979 203.861 55.3989 203.819 55.2823C203.776 55.1658 203.774 55.0383 203.813 54.9205C203.855 54.791 208.24 41.9158 221.482 45.6107C221.602 45.6444 221.706 45.7173 221.779 45.8176C221.853 45.918 221.89 46.04 221.885 46.164C221.868 46.5214 221.413 54.9459 216.152 57.7102C215.045 58.285 213.814 58.5784 212.568 58.5645ZM205.008 54.8574C209.398 57.4999 212.976 58.1318 215.632 56.7386C219.693 54.6062 220.575 48.2909 220.742 46.558C209.985 43.8346 205.826 52.7748 205.008 54.8585V54.8574Z" fill="#263238"/>
<path d="M201.255 55.0943C201.255 55.0943 197.141 42.5533 184.26 46.1442C184.26 46.1442 185.154 65.1035 201.255 55.0943Z" fill="white"/>
<path d="M193.021 58.5645C191.776 58.5791 190.547 58.2872 189.442 57.7146C184.181 54.9482 183.724 46.527 183.707 46.1684C183.703 46.0444 183.74 45.9224 183.813 45.822C183.886 45.7217 183.991 45.6488 184.11 45.6151C197.343 41.9169 201.737 54.7999 201.779 54.9249C201.818 55.0427 201.816 55.1702 201.774 55.2868C201.731 55.4034 201.651 55.5024 201.546 55.5678C198.331 57.5619 195.478 58.5645 193.021 58.5645ZM184.847 46.5591C185.014 48.2887 185.896 54.6051 189.959 56.7397C192.614 58.1351 196.189 57.5011 200.582 54.8585C199.762 52.7737 195.577 43.8369 184.847 46.5602V46.5591Z" fill="#263238"/>
<path d="M202.354 122.025C199.687 120.094 197.365 118.042 196.082 116.97C186.404 109.078 178.37 99.3626 172.435 88.375C170.63 88.6782 168.718 89.06 166.748 89.5314C172.092 95.7538 176.744 102.479 182.053 108.802C185.967 113.46 196.601 128.404 202.354 122.025Z" fill="#7400E5"/>
<path d="M203.785 122.025C206.451 120.094 208.773 118.042 210.057 116.97C219.735 109.078 227.769 99.3626 233.704 88.375C235.508 88.6782 237.421 89.06 239.39 89.5314C234.047 95.7538 229.394 102.479 224.085 108.802C220.171 113.46 209.538 128.404 203.785 122.025Z" fill="#7400E5"/>
<path d="M200.121 117.415C194.065 120.846 188.839 126.245 183.126 129.998C176.829 134.134 170.465 137.505 163.096 137.876C163.182 143.419 163.895 148.934 165.222 154.317C169.084 148.824 173.964 144.5 180.747 139.599C188.502 133.993 197.046 128.156 199.622 120.291C199.857 119.559 200.048 118.813 200.194 118.057C200.168 117.844 200.145 117.631 200.121 117.415Z" fill="#7400E5"/>
<path d="M206.135 117.415C206.109 117.631 206.087 117.842 206.063 118.057C206.208 118.813 206.399 119.56 206.635 120.292C209.21 128.157 217.754 133.994 225.508 139.6C232.287 144.5 237.17 148.824 241.033 154.318C242.36 148.936 243.073 143.42 243.159 137.877C235.79 137.507 229.425 134.135 223.13 129.999C217.415 126.246 212.189 120.847 206.135 117.415Z" fill="#7400E5"/>
<path d="M177.733 103.018C181.631 98.6151 183.769 93.1442 185.611 87.6034C182.541 86.8056 164.837 87.9022 150.661 95.4536C157.768 99.2193 171.01 110.617 177.733 103.018Z" fill="#7400E5"/>
<path d="M228.859 103.018C224.961 98.6151 222.824 93.1442 220.981 87.6034C224.052 86.8056 241.755 87.9022 255.931 95.4536C248.823 99.2193 235.581 110.617 228.859 103.018Z" fill="#7400E5"/>
<path d="M211.607 118.833C212.136 124.636 208.217 129.878 202.793 129.878C197.37 129.878 193.451 124.637 193.98 118.833C194.452 113.652 198.378 109.842 202.793 109.842C207.208 109.842 211.138 113.652 211.607 118.833Z" fill="#263238"/>
<path d="M208.482 118.833C208.703 122.502 206.158 125.687 202.791 125.687C199.423 125.687 196.884 122.502 197.1 118.833C197.059 118.061 197.177 117.288 197.444 116.562C197.712 115.837 198.125 115.173 198.657 114.613C199.19 114.052 199.831 113.605 200.541 113.3C201.252 112.994 202.017 112.837 202.791 112.837C203.564 112.837 204.33 112.994 205.04 113.3C205.751 113.605 206.392 114.052 206.924 114.613C207.457 115.173 207.869 115.837 208.137 116.562C208.405 117.288 208.522 118.061 208.482 118.833Z" fill="white"/>
<path d="M206.065 119.015C206.156 119.495 206.139 119.99 206.017 120.464C205.894 120.938 205.669 121.379 205.357 121.756C205.044 122.132 204.653 122.435 204.21 122.643C203.767 122.852 203.284 122.959 202.794 122.959C202.305 122.959 201.822 122.852 201.379 122.643C200.936 122.435 200.544 122.132 200.232 121.756C199.92 121.379 199.694 120.938 199.572 120.464C199.449 119.99 199.433 119.495 199.523 119.015C199.5 118.571 199.567 118.127 199.721 117.71C199.875 117.293 200.113 116.912 200.419 116.589C200.725 116.267 201.093 116.01 201.501 115.835C201.91 115.659 202.35 115.569 202.794 115.569C203.239 115.569 203.679 115.659 204.087 115.835C204.495 116.01 204.864 116.267 205.17 116.589C205.476 116.912 205.713 117.293 205.867 117.71C206.021 118.127 206.088 118.571 206.065 119.015Z" fill="#263238"/>
<path d="M42.964 51.5437C43.7261 51.4332 44.2543 50.7259 44.1439 49.9638C44.0334 49.2017 43.3261 48.6734 42.564 48.7839C41.8019 48.8943 41.2736 49.6017 41.3841 50.3638C41.4945 51.1259 42.2019 51.6541 42.964 51.5437Z" fill="#E6DCFF"/>
<path d="M40.3639 33.5986C37.0886 34.0732 34.0276 35.5084 31.5679 37.7227C29.1083 39.9369 27.3605 42.8308 26.5454 46.0384C25.7304 49.2459 25.8848 52.6232 26.989 55.743C28.0933 58.8628 30.0979 61.5852 32.7493 63.5658C35.4007 65.5464 38.5798 66.6964 41.8848 66.8702C45.1897 67.0441 48.472 66.2341 51.3166 64.5426C54.1612 62.8512 56.4403 60.3542 57.8659 57.3675C59.2914 54.3807 59.7993 51.0383 59.3253 47.763C58.6849 43.3722 56.3288 39.4149 52.7739 36.7593C49.2191 34.1038 44.7559 32.9671 40.3639 33.5986ZM29.205 46.8887L31.9161 47.5416C31.7226 48.3455 31.6187 49.1682 31.6063 49.995L28.8166 49.9573C28.8334 48.9237 28.9637 47.8951 29.205 46.8899V46.8887ZM29.1176 53.0292L31.8475 52.4604C32.018 53.2694 32.2778 54.057 32.6221 54.8086L30.0858 55.9683C29.6548 55.0279 29.3307 54.042 29.1198 53.0292H29.1176ZM33.8128 60.8551C33.0205 60.1916 32.3039 59.4427 31.676 58.622L33.8892 56.9278C34.3922 57.5857 34.9663 58.1862 35.6011 58.7182L33.8128 60.8551ZM49.8319 57.1812L45.0735 53.6312C44.5606 53.9819 43.975 54.2119 43.3605 54.304C42.3845 54.4493 41.3886 54.2441 40.5496 53.7247C39.7106 53.2053 39.0828 52.4054 38.7776 51.467C38.4725 50.5286 38.5098 49.5124 38.8828 48.5989C39.2559 47.6854 39.9406 46.9336 40.8154 46.4771L39.3768 36.562L42.1366 36.1614L43.5752 46.0765C44.4205 46.2441 45.1933 46.6691 45.7876 47.2932C46.382 47.9172 46.7688 48.7098 46.895 49.5623C46.9813 50.1776 46.9272 50.8045 46.7367 51.3959L51.4951 54.9459L49.8319 57.1812Z" fill="#E6DCFF"/>
<path d="M93.4384 65.3646L82.0405 58.6764L82.8239 64.0854L45.5638 69.4856C40.8722 70.183 36.0868 69.155 32.0955 66.5924C28.1041 64.0297 25.1778 60.1063 23.8593 55.55C22.5408 50.9937 22.9197 46.1139 24.9257 41.8157C26.9317 37.5176 30.4286 34.0929 34.7677 32.177C39.1067 30.2612 43.9934 29.9842 48.5212 31.3975C53.049 32.8108 56.9105 35.8184 59.3893 39.8623C61.8681 43.9063 62.796 48.7121 62.0008 53.3882C61.2056 58.0643 58.7413 62.2932 55.0651 65.2905L63.66 64.0444C66.1092 60.3724 67.5439 56.118 67.8185 51.7126L67.8705 50.8472L72.1863 49.0357L71.301 42.8986L66.6533 42.415L66.3556 41.5928C65.2787 38.6269 63.6474 35.8929 61.5486 33.5368L60.9687 32.8806L62.7647 28.5538L57.8039 24.8456L54.1654 27.798L53.3753 27.4284C50.5203 26.0842 47.4356 25.2956 44.2857 25.1045L43.4126 25.0525L41.6299 20.7368L35.4983 21.6221L35.0147 26.2698L34.1925 26.5675C31.2266 27.6444 28.4926 29.2757 26.1365 31.3745L25.4825 31.9544L21.1557 30.1561L17.4486 35.1225L20.3999 38.761L20.0303 39.5511C18.6848 42.4085 17.8958 45.4959 17.7054 48.6484L17.6534 49.5215L13.3376 51.3042L14.2229 57.4392L18.8706 57.9349L19.1683 58.7538C21.1559 64.1672 24.9411 68.7345 29.8914 71.6924C34.8417 74.6504 40.6572 75.8198 46.3661 75.0052L83.6284 69.6051L84.4119 75.0141L93.4384 65.3646Z" fill="#E6DCFF"/>
<path d="M13.8224 74.0855L14.6225 79.6063L34.4227 76.7369C31.3557 75.7641 28.478 74.2734 25.9141 72.3293L13.8224 74.0855Z" fill="#E6DCFF"/>
<path d="M361.794 21.4019L353.251 18.7063C352.877 18.5989 352.477 18.639 352.132 18.8183C351.787 18.9977 351.524 19.3026 351.397 19.6701L343.338 45.2081C343.23 45.5817 343.271 45.9823 343.45 46.3272C343.629 46.6721 343.934 46.935 344.302 47.0616L352.845 49.7573C353.218 49.8647 353.619 49.8246 353.964 49.6452C354.309 49.4659 354.572 49.161 354.698 48.7934L362.757 23.2555C362.865 22.8819 362.825 22.4813 362.645 22.1364C362.466 21.7915 362.161 21.5286 361.794 21.4019Z" fill="#E6DCFF"/>
<path d="M344.753 16.025L336.21 13.3293C335.837 13.2219 335.436 13.262 335.091 13.4414C334.746 13.6207 334.484 13.9256 334.357 14.2932L325.093 43.6478C324.985 44.0214 325.025 44.422 325.205 44.7669C325.384 45.1118 325.689 45.3747 326.056 45.5013L334.599 48.197C334.973 48.3044 335.373 48.2643 335.718 48.0849C336.063 47.9056 336.326 47.6007 336.453 47.2331L345.717 17.8785C345.825 17.5049 345.784 17.1043 345.605 16.7594C345.426 16.4145 345.121 16.1516 344.753 16.025Z" fill="#E6DCFF"/>
<path d="M383.022 13.5108L340.398 0.0590563C340.024 -0.0483493 339.624 -0.0082376 339.279 0.171111C338.934 0.35046 338.671 0.65536 338.544 1.0229L337.053 5.74916C336.945 6.12277 336.985 6.52336 337.165 6.86826C337.344 7.21316 337.649 7.47606 338.016 7.6027L380.64 21.0544C381.014 21.1619 381.414 21.1217 381.759 20.9424C382.104 20.763 382.367 20.4581 382.494 20.0906L383.988 15.3643C384.087 14.9906 384.043 14.5931 383.864 14.2501C383.685 13.9071 383.385 13.6434 383.022 13.5108Z" fill="#E6DCFF"/>
<path d="M378.834 26.7799L370.291 24.0842C369.918 23.9768 369.517 24.0169 369.172 24.1963C368.827 24.3756 368.564 24.6805 368.438 25.048L361.568 46.8147C361.461 47.1883 361.501 47.5889 361.68 47.9338C361.859 48.2787 362.164 48.5416 362.532 48.6683L371.075 51.3639C371.448 51.4713 371.849 51.4312 372.194 51.2519C372.539 51.0725 372.802 50.7676 372.928 50.4001L379.798 28.6334C379.906 28.2598 379.865 27.8592 379.686 27.5143C379.507 27.1694 379.202 26.9065 378.834 26.7799Z" fill="#E6DCFF"/>
</svg>
