<svg width="50" height="56" viewBox="0 0 50 56" fill="none" xmlns="http://www.w3.org/2000/svg">
<path d="M33.8126 49.6762L26.7795 53.5447C25.6745 54.1518 24.3255 54.1518 23.2205 53.5447L16.1874 49.6762C7.43983 44.8653 2.01921 35.8252 2 26.0156V10.2812C2 9.47677 2.32684 6.75579 6.43053 4.74464C10.1468 2.92277 16.3932 2 25 2C43.2668 2 47.1768 6.64932 47.8911 9.41761C47.9635 9.70003 48.0001 9.99008 48 10.2812V26.0156C47.9859 33.2387 45.0431 40.0447 40 45.0522" stroke="#7400E8" stroke-width="4" stroke-linecap="round" stroke-linejoin="round"/>
<path d="M25 36C31.0751 36 36 31.0751 36 25C36 18.9249 31.0751 14 25 14C18.9249 14 14 18.9249 14 25C14 31.0751 18.9249 36 25 36Z" stroke="#7400E8" stroke-width="4" stroke-linejoin="round"/>
<path d="M25 20V25.3333L28 27" stroke="#7400E8" stroke-width="4" stroke-linecap="round" stroke-linejoin="round"/>
</svg>
