<svg width="64" height="23" viewBox="0 0 64 23" fill="none" xmlns="http://www.w3.org/2000/svg">
<path fill-rule="evenodd" clip-rule="evenodd" d="M4.82147 10.8466C4.81086 12.8645 6.29047 14.0674 8.65162 13.5205V8.1728C6.26062 7.44465 4.83147 8.9178 4.82147 10.8466ZM8.72385 0.440186H11.9759V15.833C8.8587 16.3426 5.87324 16.6659 3.73747 15.4716C0.987469 13.9341 0.76639 9.04811 2.94247 6.87195C4.04577 5.76872 6.26693 4.99203 8.65162 5.49888V0.657035C8.64539 0.554418 8.63962 0.452262 8.72385 0.440186Z" fill="black"/>
<path fill-rule="evenodd" clip-rule="evenodd" d="M17.2514 3.83672H13.9994V0.440186H17.2514V3.83672Z" fill="black"/>
<path fill-rule="evenodd" clip-rule="evenodd" d="M56.2753 13.6651C59.8205 15.0428 60.2127 7.31959 56.6367 8.02828C54.416 8.46843 54.4873 12.9703 56.2753 13.6651ZM56.4199 5.35443C59.1272 5.06497 61.1697 6.25966 61.9845 8.10058C63.3748 11.2416 61.908 14.8457 59.672 15.9054C58.513 16.4547 57.2995 16.507 56.2031 16.4113C52.8143 16.1157 50.6771 12.6622 51.8671 8.8232C52.0533 8.22236 52.2626 7.85482 52.373 7.66697C53.1097 6.41451 54.3533 5.57543 56.4199 5.35443Z" fill="black"/>
<path fill-rule="evenodd" clip-rule="evenodd" d="M21.732 12.4365C20.8325 13.9481 23.0924 14.3102 24.5503 13.8819V11.6415C23.4301 11.7979 22.1551 11.7252 21.732 12.4365ZM27.441 15.9775C24.7546 16.1321 20.6722 17.0472 19.2026 15.2549C18.3392 14.2018 18.432 12.1933 19.2026 11.2079C20.1983 9.93469 22.372 9.65701 24.3335 9.47354C24.5116 9.03508 24.3915 8.3217 24.189 8.02809C22.3948 7.57109 20.6122 8.27924 19.3472 8.82301V6.29377C21.2578 5.41593 25.6833 4.49162 27.0074 6.51055C27.7028 7.57093 27.441 9.42023 27.441 11.0633V15.9775Z" fill="black"/>
<path fill-rule="evenodd" clip-rule="evenodd" d="M38.8592 16.1224H35.6072V11.9308C35.6072 10.5507 35.8305 8.80082 35.1012 8.2452C34.5301 7.80982 33.1753 8.02828 32.3552 8.2452V16.1224H29.1031V6.0772C32.4275 5.21366 38.4282 4.28781 38.8592 8.46197C39.0718 10.52 38.7018 13.6076 38.8592 16.1224Z" fill="black"/>
<path fill-rule="evenodd" clip-rule="evenodd" d="M43.701 12.6534C44.2482 13.5388 45.7301 13.8708 46.9529 13.3038C46.8858 11.6125 46.8623 9.87748 46.8807 8.10056C44.0702 7.35802 42.3953 10.5414 43.701 12.6534ZM51.8671 5.78809C51.5777 6.65494 51.1541 7.38748 50.7831 8.17294C50.448 8.24802 50.1575 8.03971 49.9881 8.17294C49.914 11.6956 50.7384 16.4712 49.3378 19.0129C48.4945 20.5432 46.9418 21.5249 44.5681 21.6868C42.839 21.8047 41.4969 21.5222 40.2322 21.0364V18.0012C41.7156 18.8673 45.4641 19.5735 46.5194 17.7843C46.8298 17.2579 46.8102 16.7139 46.9529 15.9054C46.2735 15.9411 45.614 16.2557 44.785 16.2668C41.3768 16.312 39.2682 13.5982 40.0876 9.83494C40.4045 8.37925 41.2575 7.20718 42.4002 6.51071C44.7736 5.06418 48.4218 5.17402 51.8671 5.78809Z" fill="black"/>
<path fill-rule="evenodd" clip-rule="evenodd" d="M17.2514 5.55664C17.2477 7.95133 17.2483 9.6721 17.2481 12.5813C17.1099 15.4403 17.1421 17.717 16.0952 19.085C15.8887 19.3548 15.4503 19.7483 15.0834 20.0246C14.7754 20.2565 14.1882 20.7268 13.8549 20.7473C13.5189 20.7679 12.6557 20.2808 12.265 20.0968C11.752 19.8552 11.2777 19.5343 10.7474 19.3742C11.9844 18.6076 13.1587 18.0329 13.6381 16.4835C14.055 15.136 13.9994 13.1833 13.9994 11.2803C13.9994 9.40118 14.0078 7.21657 14.0078 5.55749L17.2514 5.55675V5.55664Z" fill="black"/>
</svg>
