<svg width="18" height="18" viewBox="0 0 18 18" fill="none" xmlns="http://www.w3.org/2000/svg">
<path d="M13.0325 0H4.96721C2.22829 0 0 2.2284 0 4.96732V13.0326C0 15.7716 2.22829 17.9999 4.96721 17.9999H13.0325C15.7716 17.9999 17.9999 15.7715 17.9999 13.0326V4.96732C18 2.2284 15.7716 0 13.0325 0ZM16.403 13.0326C16.403 14.891 14.891 16.4029 13.0326 16.4029H4.96721C3.1089 16.403 1.59704 14.891 1.59704 13.0326V4.96732C1.59704 3.10901 3.1089 1.59704 4.96721 1.59704H13.0325C14.8909 1.59704 16.4029 3.10901 16.4029 4.96732V13.0326H16.403Z" fill="white"/>
<path d="M8.99993 4.36205C6.44244 4.36205 4.36182 6.44267 4.36182 9.00016C4.36182 11.5576 6.44244 13.6381 8.99993 13.6381C11.5574 13.6381 13.6381 11.5576 13.6381 9.00016C13.6381 6.44267 11.5574 4.36205 8.99993 4.36205ZM8.99993 12.0409C7.32315 12.0409 5.95885 10.6768 5.95885 9.00006C5.95885 7.32317 7.32304 5.95898 8.99993 5.95898C10.6768 5.95898 12.041 7.32317 12.041 9.00006C12.041 10.6768 10.6767 12.0409 8.99993 12.0409Z" fill="white"/>
<path d="M13.8325 3.00786C13.5248 3.00786 13.2226 3.13243 13.0053 3.35069C12.7869 3.56789 12.6614 3.87026 12.6614 4.17902C12.6614 4.48682 12.787 4.78909 13.0053 5.00735C13.2225 5.22455 13.5248 5.35018 13.8325 5.35018C14.1413 5.35018 14.4426 5.22455 14.6609 5.00735C14.8791 4.78909 15.0037 4.48672 15.0037 4.17902C15.0037 3.87026 14.8791 3.56789 14.6609 3.35069C14.4437 3.13243 14.1413 3.00786 13.8325 3.00786Z" fill="white"/>
</svg>
