<svg width="36" height="36" viewBox="0 0 36 36" fill="none" xmlns="http://www.w3.org/2000/svg">
<path d="M23.1305 2.62964C16.6976 4.77538 12.0601 10.8455 12.0601 18C12.0601 25.1546 16.6976 31.2247 23.1305 33.3704C29.5628 31.2247 34.2003 25.1546 34.2003 18C34.2003 10.8455 29.5628 4.77538 23.1305 2.62964Z" fill="#FD3C65" fill-opacity="0.2"/>
<path d="M18 36C27.9255 36 36 27.9255 36 18C36 8.07447 27.9255 0 18 0C8.07517 0 0 8.07447 0 18C0 27.9255 8.07517 36 18 36ZM18 3.60014C25.9401 3.60014 32.3999 10.0599 32.3999 18C32.3999 25.9401 25.9401 32.3999 18 32.3999C10.0599 32.3999 3.60014 25.9401 3.60014 18C3.60014 10.0599 10.0599 3.60014 18 3.60014Z" fill="#FD3C65"/>
<path d="M11.3272 24.6729C11.6789 25.0245 12.1395 25.2003 12.6002 25.2003C13.0608 25.2003 13.5215 25.0245 13.8731 24.6729L18 20.546L22.1277 24.6729C22.4793 25.0245 22.94 25.2003 23.3999 25.2003C23.8606 25.2003 24.3219 25.0245 24.6729 24.6729C25.3762 23.9703 25.3762 22.8302 24.6729 22.127L20.546 18L24.6729 13.8731C25.3762 13.1699 25.3762 12.0298 24.6729 11.3272C23.9703 10.6246 22.8302 10.6246 22.127 11.3272L18 15.4541L13.8731 11.3272C13.1699 10.6246 12.0305 10.6246 11.3272 11.3272C10.6246 12.0298 10.6246 13.1699 11.3272 13.8731L15.4548 18L11.3272 22.127C10.6246 22.8302 10.6246 23.9696 11.3272 24.6729Z" fill="#FD3C65"/>
</svg>
