<svg width="18" height="16" viewBox="0 0 18 16" fill="none" xmlns="http://www.w3.org/2000/svg">
<path d="M0.318055 7.6787L4.46562 9.2267L6.07098 14.3895C6.1737 14.7202 6.57804 14.8424 6.84642 14.623L9.15833 12.7383C9.40067 12.5408 9.74585 12.531 9.99911 12.7148L14.169 15.7422C14.4561 15.9509 14.8628 15.7936 14.9348 15.4467L17.9895 0.7532C18.0681 0.37424 17.6957 0.0580998 17.3349 0.19766L0.313195 6.76412C-0.106865 6.92612 -0.103205 7.52084 0.318055 7.6787ZM5.81226 8.40266L13.9181 3.41024C14.0638 3.32078 14.2137 3.51776 14.0886 3.6338L7.3989 9.8522C7.16376 10.0711 7.01208 10.364 6.96912 10.6819L6.74124 12.3707C6.71106 12.5962 6.39432 12.6186 6.3321 12.4003L5.45568 9.32084C5.3553 8.9696 5.50158 8.59442 5.81226 8.40266Z" fill="white"/>
</svg>
