<svg width="23" height="16" viewBox="0 0 23 16" fill="none" xmlns="http://www.w3.org/2000/svg">
<path d="M17.449 9.09144C16.4114 9.09144 15.4391 8.65206 14.5557 7.9369L14.7707 6.92726L14.78 6.88986C14.9717 5.81478 15.5793 4.01052 17.449 4.01052C18.8513 4.01052 19.9918 5.15104 19.9918 6.55332C19.9872 7.95092 18.8467 9.09144 17.449 9.09144ZM17.449 1.435C15.0605 1.435 13.2095 2.98685 12.4569 5.539C11.3071 3.8142 10.4377 1.7435 9.92816 0H7.35732V6.68887C7.35732 8.00701 6.28224 9.08209 4.9641 9.08209C3.64595 9.08209 2.57087 8.00701 2.57087 6.68887V0H2.92909e-05V6.68887C-0.00931923 9.42799 2.2203 11.6763 4.95942 11.6763C7.69854 11.6763 9.92816 9.42799 9.92816 6.68887V5.56705C10.4283 6.60941 11.0406 7.66112 11.7838 8.59597L10.2086 16H12.8402L13.9807 10.6293C14.981 11.2696 16.1309 11.6716 17.449 11.6716C20.2676 11.6716 22.5627 9.36255 22.5627 6.54397C22.5627 3.73006 20.2676 1.435 17.449 1.435Z" fill="white"/>
</svg>
