<svg width="36" height="36" viewBox="0 0 36 36" fill="none" xmlns="http://www.w3.org/2000/svg">
<path opacity="0.2" d="M23.1298 2.62964C16.6976 4.77538 12.0601 10.8455 12.0601 18C12.0601 25.1546 16.6976 31.2247 23.1298 33.3704C29.5628 31.2247 34.2003 25.1546 34.2003 18C34.2003 10.8455 29.5628 4.77538 23.1298 2.62964Z" fill="#7400E8"/>
<path d="M23.9274 13.1268L16.2003 20.8538L13.0727 17.7269C12.3701 17.0243 11.2301 17.0243 10.5268 17.7269C9.82423 18.4302 9.82423 19.5696 10.5268 20.2728L14.9274 24.6727C15.2783 25.0243 15.739 25.2002 16.1996 25.2002C16.6603 25.2002 17.1216 25.0243 17.4726 24.6727L26.4726 15.6727C27.1759 14.9701 27.1759 13.8301 26.4726 13.1268C25.77 12.4242 24.63 12.4242 23.9274 13.1268Z" fill="#7400E8"/>
<path d="M18 0C8.07447 0 0 8.07447 0 18C0 27.9255 8.07447 36 18 36C27.9255 36 36 27.9255 36 18C36 8.07447 27.9255 0 18 0ZM18 32.3999C10.0599 32.3999 3.60014 25.9401 3.60014 18C3.60014 10.0599 10.0599 3.60014 18 3.60014C25.9401 3.60014 32.3999 10.0599 32.3999 18C32.3999 25.9401 25.9401 32.3999 18 32.3999Z" fill="#7400E8"/>
</svg>
