<svg width="18" height="14" viewBox="0 0 18 14" fill="none" xmlns="http://www.w3.org/2000/svg">
<path fill-rule="evenodd" clip-rule="evenodd" d="M16.0427 1.09254C16.8137 1.30018 17.4216 1.908 17.6291 2.6791C18.0148 4.08754 17.9999 7.02334 17.9999 7.02334C17.9999 7.02334 17.9999 9.94418 17.6293 11.3528C17.4216 12.1237 16.8138 12.7317 16.0427 12.9392C14.6341 13.31 8.99996 13.31 8.99996 13.31C8.99996 13.31 3.38048 13.31 1.95721 12.9245C1.18611 12.7168 0.57829 12.1089 0.37065 11.3379C0 9.94418 0 7.00851 0 7.00851C0 7.00851 0 4.08754 0.37065 2.6791C0.578153 1.90814 1.20094 1.28535 1.95707 1.07785C3.36565 0.707062 8.99983 0.707062 8.99983 0.707062C8.99983 0.707062 14.6341 0.707062 16.0427 1.09254ZM11.8912 7.00854L7.2059 9.70706V4.31001L11.8912 7.00854Z" fill="white"/>
</svg>
