<svg width="56" height="56" viewBox="0 0 56 56" fill="none" xmlns="http://www.w3.org/2000/svg">
<path d="M6.76063 43C3.76202 38.7618 2 33.5867 2 28C2 13.6406 13.6406 2 28 2C33.5867 2 38.7618 3.76202 43 6.76063" stroke="#7400E8" stroke-width="4" stroke-linecap="round"/>
<path d="M11.9501 48.7196L12.7284 49.4979C13.2449 50.0145 14.0522 50.1013 14.6672 49.7062L18.1088 47.4936C19.1085 48.0019 20.1464 48.4323 21.2104 48.7798L22.0792 52.7765C22.2344 53.4906 22.8668 54 23.5975 54H32.4025C33.1333 54 33.7657 53.4906 33.9208 52.7765L34.7896 48.7798C35.8537 48.4323 36.8915 48.0019 37.8913 47.4936L41.3329 49.7062C41.9478 50.1013 42.7551 50.0149 43.2717 49.4979L49.4979 43.2717C50.0145 42.7551 50.1014 41.9478 49.7062 41.3328L47.4937 37.8912C48.0019 36.8915 48.4323 35.8536 48.7799 34.7896L52.7765 33.9208C53.4906 33.7653 54 33.1333 54 32.4025V23.5975C54 22.8667 53.4906 22.2347 52.7765 22.0792L48.7799 21.2104C48.4323 20.1464 48.0019 19.1085 47.4937 18.1088L49.7062 14.6671C50.1014 14.0522 50.0145 13.2449 49.4979 12.7283L48.7197 11.95" stroke="#7400E8" stroke-width="4" stroke-linecap="round" stroke-linejoin="round"/>
<path d="M28 2V6" stroke="#7400E8" stroke-width="4" stroke-linecap="round" stroke-linejoin="round"/>
<path d="M28 16V28H20" stroke="#7400E8" stroke-width="4" stroke-linecap="round" stroke-linejoin="round"/>
<path d="M2 28H6" stroke="#7400E8" stroke-width="4" stroke-linecap="round" stroke-linejoin="round"/>
<path d="M12 10L14 12" stroke="#7400E8" stroke-width="4" stroke-linecap="round" stroke-linejoin="round"/>
</svg>
