<svg width="35" height="36" viewBox="0 0 35 36" fill="none" xmlns="http://www.w3.org/2000/svg">
<g clip-path="url(#clip0_22_125)">
<path d="M33.4974 9.30709C32.7204 6.578 31.2721 4.4431 29.1524 2.9024C26.867 1.26266 23.5733 0 19.0711 0H15.4974C16.178 1.00457 16.6037 2.15983 16.7376 3.36585C16.8715 4.57187 16.7096 5.79236 16.2659 6.92176H17.6485C24.2189 6.92176 26.1729 11.1468 24.8388 17.6143C23.379 24.6961 19.5425 29.0725 13.0835 29.0725H8.86989L12.6122 10.884C11.2877 11.5318 9.79985 11.7692 8.33955 11.5656C6.87925 11.362 5.51308 10.7267 4.41631 9.74131L0.13128 30.458C-0.280083 32.4577 0.345532 33.886 1.01971 34.5717C1.69389 35.2573 2.55661 36 4.61057 36H13.0578C18.5055 36 22.6449 33.9403 26.4671 30.6009C30.1694 27.3633 32.5766 23.0449 33.6888 17.6458C34.304 14.6558 34.2402 11.8762 33.4974 9.30709Z" fill="white"/>
<path d="M9.51563 8.69005C11.9059 8.69005 13.8435 6.74472 13.8435 4.34503C13.8435 1.94533 11.9059 0 9.51563 0C7.1254 0 5.18774 1.94533 5.18774 4.34503C5.18774 6.74472 7.1254 8.69005 9.51563 8.69005Z" fill="white"/>
</g>
<defs>
<clipPath id="clip0_22_125">
<rect width="34.106" height="36" fill="white"/>
</clipPath>
</defs>
</svg>
