<svg width="48" height="48" viewBox="0 0 48 48" fill="none" xmlns="http://www.w3.org/2000/svg">
<path d="M23.827 0C11.6416 8.7395e-07 12.4025 5.31198 12.4025 5.31198L12.4161 10.8151H24.0443V12.4674H7.79742C7.79742 12.4674 0 11.5785 0 23.938C-8.69399e-07 36.2976 6.80577 35.8593 6.80577 35.8593H10.8675V30.124C10.8675 30.124 10.6486 23.2826 17.5646 23.2826C24.4806 23.2826 29.0977 23.2826 29.0977 23.2826C29.0977 23.2826 35.5774 23.3879 35.5774 16.9874C35.5774 10.5869 35.5774 6.40442 35.5774 6.40442C35.5774 6.40442 36.5612 0 23.827 0ZM17.4152 3.70063C18.5721 3.70063 19.5071 4.6406 19.5071 5.80357C19.5071 6.96655 18.5721 7.90652 17.4152 7.90652C16.2582 7.90652 15.3232 6.96655 15.3232 5.80357C15.3232 4.6406 16.2582 3.70063 17.4152 3.70063Z" fill="#387EB8"/>
<path d="M24.173 47.9999C36.3584 47.9999 35.5975 42.6879 35.5975 42.6879L35.5839 37.1847H23.9557V35.5324H40.2025C40.2025 35.5324 48 36.4213 48 24.0618C48 11.7023 41.1942 12.1406 41.1942 12.1406H37.1325V17.8759C37.1325 17.8759 37.3514 24.7173 30.4354 24.7173C23.5194 24.7173 18.9023 24.7173 18.9023 24.7173C18.9023 24.7173 12.4225 24.612 12.4225 31.0125C12.4225 37.4129 12.4225 41.5954 12.4225 41.5954C12.4225 41.5954 11.4387 47.9999 24.173 47.9999ZM30.5848 44.2992C29.4279 44.2992 28.4928 43.3593 28.4928 42.1963C28.4928 41.0333 29.4279 40.0933 30.5848 40.0933C31.7417 40.0933 32.6768 41.0333 32.6768 42.1963C32.6768 43.3593 31.7417 44.2992 30.5848 44.2992Z" fill="url(#paint0_linear_50_17)"/>
<defs>
<linearGradient id="paint0_linear_50_17" x1="19.2134" y1="19.4242" x2="44.8318" y2="43.8401" gradientUnits="userSpaceOnUse">
<stop stop-color="#FFE052"/>
<stop offset="1" stop-color="#FFC331"/>
</linearGradient>
</defs>
</svg>
