<svg width="48" height="43" viewBox="0 0 48 43" fill="none" xmlns="http://www.w3.org/2000/svg">
<path d="M48 21.3799C48 18.1998 44.0179 15.1861 37.9128 13.3172C39.3216 7.09402 38.6955 2.14288 35.9364 0.557736C35.3004 0.185912 34.5569 0.0097847 33.7448 0.0097847V2.19181C34.1949 2.19181 34.5569 2.27987 34.8602 2.44621C36.1908 3.20943 36.768 6.11553 36.318 9.85334C36.2104 10.7731 36.0342 11.7418 35.819 12.7301C33.9013 12.2604 31.8076 11.8984 29.6062 11.6635C28.2854 9.85334 26.9156 8.20949 25.5361 6.77111C28.7256 3.80631 31.7195 2.18202 33.7546 2.18202V0C31.064 0 27.5418 1.91783 23.9804 5.24468C20.4191 1.9374 16.8969 0.0391395 14.2063 0.0391395V2.22116C16.2316 2.22116 19.2352 3.83566 22.4248 6.7809C21.055 8.21927 19.6853 9.85334 18.384 11.6635C16.1729 11.8984 14.0791 12.2604 12.1614 12.7399C11.9364 11.7614 11.7701 10.8123 11.6527 9.90227C11.1928 6.16445 11.7603 3.25835 13.0811 2.48535C13.3746 2.30922 13.7562 2.23095 14.2063 2.23095V0.0489242C13.3844 0.0489242 12.6408 0.225051 11.9951 0.596876C9.24582 2.18202 8.62943 7.12337 10.0481 13.327C3.96249 15.2057 0 18.2096 0 21.3799C0 24.56 3.98206 27.5737 10.0872 29.4426C8.67835 35.6658 9.30453 40.6169 12.0636 42.202C12.6996 42.5739 13.4431 42.75 14.265 42.75C16.9556 42.75 20.4778 40.8322 24.0391 37.5053C27.6005 40.8126 31.1227 42.7109 33.8133 42.7109C34.6351 42.7109 35.3787 42.5347 36.0245 42.1629C38.7738 40.5778 39.3901 35.6364 37.9715 29.4328C44.0375 27.5639 48 24.5502 48 21.3799ZM35.2613 14.8534C34.8993 16.1156 34.4492 17.417 33.9405 18.7184C33.5393 17.9356 33.1186 17.1528 32.6588 16.3701C32.2087 15.5873 31.7293 14.824 31.2499 14.0804C32.6392 14.2859 33.9796 14.5403 35.2613 14.8534ZM30.7803 25.2743C30.0171 26.5952 29.2344 27.8477 28.4223 29.0121C26.9645 29.1393 25.4872 29.2078 24 29.2078C22.5226 29.2078 21.0453 29.1393 19.5972 29.0219C18.7852 27.8575 17.9927 26.6148 17.2295 25.3036C16.4859 24.0218 15.8108 22.7204 15.1945 21.4092C15.8011 20.0981 16.4859 18.7869 17.2197 17.5051C17.9829 16.1841 18.7656 14.9317 19.5777 13.7673C21.0355 13.6401 22.5128 13.5716 24 13.5716C25.4774 13.5716 26.9548 13.6401 28.4028 13.7575C29.2148 14.9219 30.0073 16.1646 30.7705 17.4757C31.5141 18.7576 32.1892 20.0589 32.8055 21.3701C32.1892 22.6813 31.5141 23.9924 30.7803 25.2743ZM33.9405 24.0022C34.4688 25.3134 34.9189 26.6246 35.2907 27.8966C34.009 28.2097 32.6588 28.4739 31.2597 28.6794C31.7391 27.926 32.2185 27.153 32.6686 26.3604C33.1186 25.5776 33.5393 24.785 33.9405 24.0022ZM24.0196 34.4427C23.1097 33.5033 22.1998 32.4563 21.2996 31.3115C22.1802 31.3507 23.0803 31.38 23.9902 31.38C24.9099 31.38 25.8198 31.3604 26.7102 31.3115C25.8296 32.4563 24.9197 33.5033 24.0196 34.4427ZM16.7403 28.6794C15.351 28.4739 14.0106 28.2195 12.7289 27.9064C13.0909 26.6441 13.541 25.3428 14.0497 24.0414C14.4509 24.8242 14.8716 25.6069 15.3314 26.3897C15.7913 27.1725 16.2609 27.9357 16.7403 28.6794ZM23.9707 8.31712C24.8806 9.25647 25.7905 10.3034 26.6906 11.4483C25.81 11.4091 24.9099 11.3798 24 11.3798C23.0803 11.3798 22.1704 11.3993 21.2801 11.4483C22.1606 10.3034 23.0705 9.25647 23.9707 8.31712ZM16.7305 14.0804C16.2511 14.8338 15.7717 15.6068 15.3216 16.3994C14.8716 17.1822 14.4509 17.965 14.0497 18.7478C13.5214 17.4366 13.0713 16.1254 12.6996 14.8534C13.9812 14.5501 15.3314 14.2859 16.7305 14.0804ZM7.87607 26.331C4.41256 24.8535 2.17203 22.9161 2.17203 21.3799C2.17203 19.8437 4.41256 17.8965 7.87607 16.4288C8.71749 16.0667 9.63718 15.7438 10.5862 15.4405C11.1439 17.3583 11.8777 19.3544 12.7876 21.3995C11.8875 23.4347 11.1635 25.421 10.6156 27.3291C9.64697 27.0257 8.72727 26.6931 7.87607 26.331ZM13.1398 40.3136C11.8092 39.5504 11.232 36.6443 11.682 32.9064C11.7896 31.9867 11.9658 31.018 12.181 30.0297C14.0987 30.4994 16.1924 30.8614 18.3938 31.0962C19.7146 32.9064 21.0844 34.5503 22.4639 35.9887C19.2744 38.9535 16.2805 40.5778 14.2454 40.5778C13.8051 40.568 13.4333 40.4799 13.1398 40.3136ZM36.3473 32.8575C36.8072 36.5953 36.2397 39.5014 34.9189 40.2744C34.6254 40.4506 34.2438 40.5288 33.7937 40.5288C31.7684 40.5288 28.7648 38.9143 25.5752 35.9691C26.945 34.5307 28.3147 32.8967 29.616 31.0865C31.8272 30.8516 33.9209 30.4896 35.8386 30.0101C36.0636 30.9984 36.2397 31.9475 36.3473 32.8575ZM40.1141 26.331C39.2727 26.6931 38.353 27.016 37.404 27.3193C36.8463 25.4015 36.1125 23.4054 35.2026 21.3603C36.1027 19.3251 36.8267 17.3387 37.3746 15.4307C38.3433 15.734 39.2629 16.0667 40.1239 16.4288C43.5874 17.9063 45.828 19.8437 45.828 21.3799C45.8182 22.9161 43.5777 24.8633 40.1141 26.331Z" fill="#61DAFB"/>
<path d="M23.9903 25.8516C26.4597 25.8516 28.4616 23.8495 28.4616 21.3799C28.4616 18.9102 26.4597 16.9082 23.9903 16.9082C21.5209 16.9082 19.519 18.9102 19.519 21.3799C19.519 23.8495 21.5209 25.8516 23.9903 25.8516Z" fill="#61DAFB"/>
</svg>
